<?xml version="1.0" encoding="utf-8"?>
<!-- Generator: Adobe Illustrator 21.0.2, SVG Export Plug-In . SVG Version: 6.00 Build 0)  -->
<svg version="1.1" id="Layer_1" xmlns="http://www.w3.org/2000/svg" xmlns:xlink="http://www.w3.org/1999/xlink" x="0px" y="0px"
	 viewBox="0 0 2559.3 297" style="enable-background:new 0 0 2559.3 297;" xml:space="preserve">
<style type="text/css">
	.st0{fill:none;}
	.st1{fill:#FFFFFF;}
	.st2{clip-path:url(#SVGID_2_);}
</style>
<g>
	<rect x="279" y="127.2" class="st0" width="2148.1" height="110.9"/>
	<path class="st1" d="M323.8,159.8l0.8,8.6c0,0.9-0.5,1.6-1.4,2.2c-0.9,0.5-1.7,0.8-2.4,0.8c-1.3,0-2.4-1-3.3-3s-1.4-3.9-1.4-5.6
		c0-6.7,2.3-12.3,7-16.9c4.6-4.6,10.5-8.1,17.6-10.5c0-3.1,0.7-6,2-8.7c1.3-2.7,3.4-4.1,6.1-4.1c1.2,0,1.8,1.7,1.8,5v5.7
		c2.9-0.4,5-0.5,6.3-0.5c12,0,21.4,3.4,28.4,10.1c7,6.7,10.5,15.1,10.5,25.3c0,7-1.3,13.2-3.8,18.6c-2.5,5.4-5.9,9.7-10.3,12.8
		c-8.6,6.3-19,9.4-31,9.4h-2.8c-0.3,2.6-0.6,3.9-1.1,3.9c-4.2,0-7.1-0.6-8.5-1.8c-0.6-0.6-1-1.7-1.1-3.2c-8-2.2-12-4.7-12-7.4
		c0-0.9,0.3-1.6,0.9-2.1s1.3-0.7,2.1-0.7c0.8,0,3.8,1.1,9,3.2c0.8-23.6,1.8-43.8,3.1-60.8c-5,1.7-8.9,4.3-11.9,7.7
		C325.3,151.2,323.8,155.2,323.8,159.8z M353.2,137.9c-1.3,0-2.2,0-2.8,0.1c-0.4,15.8-0.8,29-1.4,39.7c-0.5,14-0.8,22.7-0.9,26.3
		c1.8,0.3,3.7,0.4,5.7,0.4c8.5,0,16-3.2,22.3-9.5s9.5-14.2,9.5-23.4c0-9.3-3-17.2-9-23.8C370.4,141.2,362.7,137.9,353.2,137.9z"/>
	<path class="st1" d="M460.6,212.3l3.1-0.8c1,0,1.5,0.5,1.5,1.5c-0.1,1.6-0.9,3.1-2.5,4.4c-1.6,1.3-3.4,1.9-5.4,1.9s-3.6-1-4.8-2.9
		c-1.7-2.8-3.3-7.9-4.8-15.2c-0.7-3.5-1.5-6.4-2.5-8.7c-1.7,0.6-3.5,0.9-5.4,0.9s-3.5-0.4-5-1.2c-1.4-0.8-2.1-1.7-2.1-2.9
		c0.1-2.9,2.5-4.3,7-4.3c2.2,0,4.6,1,7.1,2.9c3.9-3,5.9-7.1,5.9-12.4c0-3.1-0.6-5.9-1.8-8.4c-1.2-2.4-2.8-4.3-4.7-5.7
		c-3.8-2.7-8.1-4.1-12.9-4.1c-0.1,1.4-0.3,3.6-0.7,6.6c-0.6,6.3-1,11.2-1.1,14.6l-0.3,14.9c0,11.5-2.3,17.2-6.8,17.2
		c-2.9,0-4.3-1.2-4.3-3.7c0-0.6,0.4-1.7,1.3-3.2s1.5-3.3,1.8-5.2s0.8-7.8,1.2-17.5c0.4-9.7,1-17.3,1.8-22.8
		c-3.3,0.9-6.1,2.4-8.2,4.3c-2.1,2-3.2,4.3-3.2,6.9c0,1.5-0.3,2.7-1,3.6c-0.7,0.9-1.5,1.4-2.6,1.4c-1.8,0-2.7-1-2.7-2.9
		c0-4.4,1.8-8,5.3-10.9c3.6-2.9,8-4.9,13.2-6.2c1.3-4.2,3-6.3,5.3-6.3c0.9,0,1.3,1,1.3,3c0,0.4-0.1,1.2-0.2,2.4c0.7-0.1,2-0.2,4-0.2
		s4.2,0.3,6.6,0.9c2.5,0.6,4.9,1.5,7.4,2.9s4.5,3.4,6,6.1c1.5,2.7,2.3,5.9,2.3,9.6c0,3.7-0.9,7.1-2.8,10.2c-1.9,3.2-4.3,5.7-7.4,7.6
		c2.1,2.6,3.8,5.9,5.1,9.7c1.2,3.8,2.4,6.8,3.4,8.8C459.2,211.3,460,212.3,460.6,212.3z M436.6,188.2c0,0.5,0.4,0.9,1.3,1.3
		c0.9,0.4,1.8,0.6,2.8,0.6s1.9-0.2,2.7-0.5c-1.3-1.4-2.7-2.2-4.3-2.2C437.4,187.5,436.6,187.7,436.6,188.2z"/>
	<path class="st1" d="M476.4,209.4c-1.3-0.9-1.9-2.3-1.9-4.3s0.9-3.5,2.7-4.7c1.8-1.1,3.5-1.7,5-1.7s2.8,0.4,3.8,1.3
		c1,0.9,1.6,1.9,1.6,3.2c0,5-2.4,7.4-7.3,7.4C479,210.7,477.7,210.2,476.4,209.4z"/>
	<path class="st1" d="M589.2,202c1.6,0,3.8-1.9,6.5-5.6c2.7-3.7,5.4-8.5,8-14.4c2.7-5.9,4.3-8.8,4.9-8.8c0.6,0,0.9,0.4,0.9,1.1
		c0,2.5-1.3,6.5-3.9,12c-7.1,15.1-13.1,22.7-18.1,22.7c-4.1,0-7.1-0.7-8.9-2.2c-0.8-0.8-1.2-9.4-1.2-25.6l-22.1,1.6
		c-1.7,4.7-3.2,9.4-4.6,14c-1.4,4.7-2.3,7.6-2.7,8.6c-1,2.3-3.4,3.5-7.2,3.5c-2.5,0-3.8-1.1-3.8-3.2s1.7-5.3,5.1-9.5
		c0.6-0.8,2.7-5.2,6.2-13.1c-1.3,0.1-2.5,0.1-3.6,0.1c-3.2,0-4.7-1.4-4.7-4c0-2.4,1.3-3.6,3.8-3.6c0.2,0,2.7,0.2,7.7,0.7
		c1.3-3.1,2.8-6.3,4.3-9.3c11.8-24.7,19.9-37,24.3-37c3.3,0,5.6,15.4,6.9,46.3h1.2c0.6,0,0.9,0.5,0.9,1.4s-0.7,1.7-2,2.3
		C587.5,194.7,588.3,202,589.2,202z M557.2,176.9c10.5,0,17.2,0,20.1-0.1c-0.1-1.4-0.2-4-0.3-7.6s-0.2-6.7-0.3-9.4s-0.2-5.4-0.3-8.3
		c-0.4-6.2-0.9-9.3-1.6-9.3c-1,0-3,2.9-6.1,8.8c-3.1,5.9-5.4,10.8-7.2,14.9C559.3,171.7,557.8,175.4,557.2,176.9z"/>
	<path class="st1" d="M634.5,205.8c3.4,0,6.4-1.2,9-3.6c2.6-2.4,3.9-5.2,3.9-8.3s-1-6-2.9-8.6c-2.1,1.1-4.3,1.6-6.3,1.6
		c-4.9,0-7.3-1.5-7.3-4.5c0-0.9,0.6-1.7,1.8-2.4s2.9-1.1,5.2-1.1c2.2,0,4.7,0.7,7.3,2c2.5-2.7,3.8-5.8,3.8-9.2
		c0-4.2-1.8-7.6-5.5-10.1s-7.6-3.7-11.9-3.7c-0.9,0-1.5,0-2,0.1c-0.1,1.8-0.2,4.8-0.5,8.8c-0.4,6-0.6,15.3-0.6,27.7
		c0,4.8-0.3,7.2-1,7.2c-2.7,0-4.4-0.4-5.2-1.1c-0.8-0.8-1.1-2.9-1.1-6.5c0-0.9,0.2-4.5,0.5-10.9s0.5-11.5,0.5-15.4s0.1-6.8,0.4-8.6
		c-3.3,1.1-5.1,3-5.4,5.5c-0.3,2.1-0.7,3.5-1.4,4.3s-1.5,1.2-2.6,1.2s-1.8-0.3-2.2-0.9c-0.4-0.6-0.6-1.2-0.6-1.8
		c0-5.5,4.3-9.3,12.8-11.3c1.1-4.3,2.8-6.4,5.1-6.4c0.9,0,1.4,1.8,1.4,5.3c1.6-0.2,3.7-0.3,6.1-0.3c2.4,0,5.2,0.5,8.4,1.4
		c3.1,0.9,5.9,2.5,8.2,4.8s3.5,4.9,3.5,7.7c0,5.3-2.6,10-7.7,14.3c3.5,2.8,5.3,6.1,5.3,9.9c0,3.8-1.2,7-3.6,9.5
		c-4.5,4.6-10.5,6.9-18,6.9c-5.1,0-8.8-0.3-11-1c-0.4-0.1-0.9-0.5-1.4-1s-0.7-1.2-0.7-2c0-1.3,1.3-2,3.9-2c0.8,0,2.6,0.4,5.4,1.3
		C630.9,205.3,633,205.8,634.5,205.8z M642.5,183.2c-1.9-1.6-3.7-2.4-5.3-2.4c-1.7,0-2.5,0.3-2.5,1c0,1.5,1.5,2.2,4.6,2.2
		C640.4,184.1,641.5,183.8,642.5,183.2z"/>
	<path class="st1" d="M672.6,174.3l0.6,6c0,0.6-0.3,1.1-1,1.5s-1.2,0.6-1.7,0.6c-0.9,0-1.7-0.7-2.3-2.1c-0.7-1.4-1-2.7-1-3.9
		c0-4.7,1.6-8.6,4.9-11.9c3.2-3.2,7.4-5.7,12.3-7.3c0-2.1,0.5-4.2,1.4-6.1c0.9-1.9,2.3-2.9,4.3-2.9c0.8,0,1.2,1.2,1.2,3.5v4
		c2-0.3,3.5-0.4,4.4-0.4c8.4,0,15,2.3,19.9,7s7.3,10.6,7.3,17.7c0,4.9-0.9,9.3-2.6,13c-1.8,3.8-4.2,6.8-7.2,9
		c-6,4.4-13.3,6.6-21.7,6.6h-2c-0.2,1.8-0.4,2.7-0.8,2.7c-3,0-4.9-0.4-6-1.2c-0.4-0.4-0.7-1.2-0.8-2.3c-5.6-1.6-8.4-3.3-8.4-5.2
		c0-0.6,0.2-1.1,0.7-1.5c0.4-0.3,0.9-0.5,1.5-0.5c0.5,0,2.6,0.8,6.3,2.3c0.6-16.5,1.3-30.7,2.2-42.5c-3.5,1.2-6.3,3-8.4,5.4
		C673.6,168.3,672.6,171.1,672.6,174.3z M693.2,159c-0.9,0-1.5,0-2,0.1c-0.3,11-0.6,20.3-0.9,27.8c-0.3,9.8-0.5,15.9-0.7,18.4
		c1.3,0.2,2.6,0.3,4,0.3c6,0,11.2-2.2,15.6-6.7c4.4-4.4,6.6-9.9,6.6-16.4s-2.1-12-6.3-16.6C705.2,161.3,699.8,159,693.2,159z"/>
	<path class="st1" d="M773.2,203.9c1.1,0,2.6-1.3,4.4-3.9c1.9-2.6,3.8-6,5.6-10.1c1.9-4.1,3-6.2,3.4-6.2s0.6,0.3,0.6,0.8
		c0,1.8-0.9,4.6-2.7,8.4c-5,10.6-9.1,15.9-12.5,15.9c-2.9,0-4.9-0.5-6.1-1.4c-0.5-0.5-0.8-1.7-0.8-3.7s0.2-5,0.5-9.1
		c-2.4,4.1-4.9,7.5-7.6,10.2c-2.7,2.7-5.3,4-7.9,4c-2.6,0-4.7-1.4-6.4-4.2c-1.6-2.8-2.5-6.6-2.5-11.3c0-4.8,0.5-10.7,1.4-17.9
		c0.9-7.1,1.4-12.5,1.4-15.9c0-0.9-0.2-1.3-0.7-1.3c-1,0-2.2,0.7-3.4,2.2c-1.3,1.5-2.2,3.8-2.6,6.9c-0.1,0.7-0.3,1.3-0.8,1.8
		s-1,0.8-1.5,0.8c-0.8,0-1.1-0.6-1.1-1.9c0-1.3,0.6-3,1.9-5.3c1.3-2.3,2.9-4.4,5-6.3c2-1.9,4-2.8,6-2.8c2.3,0,3.4,1.8,3.4,5.4
		c0,3.6-0.4,8.9-1.2,15.8c-0.8,6.9-1.1,12.1-1.1,15.6c0,8.8,1.6,13.2,4.9,13.2c1.9,0,4.1-1.5,6.6-4.5s4.8-6.6,6.7-10.6
		c1.3-16.1,2.2-26.1,2.7-30c0.1-0.6,1.1-1.5,2.9-2.9c1.8-1.4,3.2-2.1,4.2-2.1s1.5,1.8,1.5,5.5c0,2.8-0.2,5.2-0.7,7.2
		c-0.4,2-1,4.4-1.7,7.1c-0.7,2.7-1.2,4.7-1.5,6c-0.6,8.4-0.9,15.8-0.9,22.1C772.8,203,772.9,203.9,773.2,203.9z"/>
	<path class="st1" d="M814.3,159c3.2-3.7,7.5-5.5,12.8-5.5s7.9,1.8,7.9,5.5c0,2.5-0.6,4.7-1.7,6.8c-1.2,2-2.7,3.8-4.7,5.2
		c-3.8,2.6-8.3,4.4-13.5,5.6c-1.3,10.8-3.1,18.6-5.6,23.2c5.8,2,9.7,3.2,11.7,3.7s4.1,0.8,6.4,0.8c2.2,0,3.8-0.9,4.6-2.7
		s1.4-2.7,1.8-2.7c0.8,0,1.1,0.5,1.1,1.4c0,3-1.1,5.5-3.3,7.6s-4.6,3.1-7.2,3.1c-2.6,0-5-0.4-7.2-1.3c-2.1-0.9-3.5-1.4-4.1-1.7
		s-1.7-0.8-3.4-1.6s-2.9-1.4-3.6-1.7c-2.4,2.5-5.6,3.8-9.6,3.8c-1.6,0-3.1-0.6-4.3-1.8c-1.3-1.2-1.9-2.6-1.9-4.3
		c0-3.6,2-5.4,6.1-5.4c1.8,0,4.2,0.4,7.4,1.2c1.2-3.8,2.5-10.6,3.8-20.6c-0.7,0.1-1.6,0.1-2.8,0.1s-1.7-0.2-1.7-0.6
		c0-1.2,1.6-2,4.9-2.3C809,167.9,811.1,162.7,814.3,159z M801.8,202.5c-3.7-1.6-5.9-2.4-6.8-2.4s-1.3,0.4-1.3,1.3
		c0,0.9,0.4,1.6,1.2,2.3c0.8,0.6,1.8,0.9,3.1,0.9C799.3,204.7,800.5,203.9,801.8,202.5z M825.4,169.2c2.6-2.1,3.9-4.9,3.9-8.3
		c0-3.4-1.2-5.1-3.5-5.1c-5.1,0-8.6,6-10.4,17.9C819.4,172.8,822.8,171.3,825.4,169.2z"/>
	<path class="st1" d="M958.9,212.7l5.4-0.5c0.8,0,1.2,0.4,1.2,1.1c-0.2,1.6-1.6,3.3-4.3,5.1s-5.7,2.7-9.2,2.7
		c-3.8,0-7.7-4.2-11.9-12.7c-3.6-7.1-7.2-15.4-10.9-25c-2.6,1.4-5.3,2.4-8.1,2.8c-4,18.3-13.7,27.4-29.2,27.4c-4,0-7.8-0.9-11.2-2.8
		c-3.4-1.9-5.1-4.8-5.1-8.8c0-2.4,0.6-4.4,1.9-6c1.3-1.6,2.9-2.4,5.1-2.4c2.1,0,3.2,0.5,3.2,1.5c0,0.5-0.3,1.3-0.8,2.6
		s-0.8,2.6-0.8,3.9c0,1.3,0.8,2.7,2.3,4.2s3.8,2.2,6.9,2.2c3.1,0,5.7-0.7,8-2.1c2.2-1.4,4.1-3.4,5.4-6.1c1.4-2.7,2.5-5.4,3.3-8.2
		c0.9-2.8,1.5-6.3,1.8-10.4c0.6-5.9,0.9-12.8,0.9-20.5s0.1-13.9,0.3-18.6c-11.5,2-17.3,6.9-17.3,14.9c0,2.3-0.5,4-1.4,5.3
		s-2.1,1.9-3.6,1.9c-2.7,0-4.1-1.5-4.1-4.6c0-5.4,2.4-10,7.3-13.7c4.9-3.7,11.3-6.5,19.4-8.3c0.6-3.6,2.2-6.6,4.8-8.9
		c2.6-2.3,4.9-3.5,6.9-3.5s3.6,0.6,4.9,1.7c1.2,1.1,1.8,2.6,1.8,4.5c0,4.4-3.1,7.5-9.2,9.2l0.5,25.1c0,5.2-0.3,10.1-0.9,14.6
		c4.6-1.4,9.1-5.5,13.5-12.3s8.2-15.3,11.3-25.8c2.4-8.1,6.5-12.1,12.3-12.1c2.4,0,3.6,1.5,3.6,4.5c0,2.9-1.8,5.5-5.4,8
		c-1.3,0.9-2.1,1.5-2.3,1.9c-7,16.1-13.5,27.3-19.3,33.5c5.7,11.6,10.3,20.3,13.8,26.2C953.3,209.8,956.4,212.7,958.9,212.7z
		 M926.2,129.7c-1.9,0-3.1,2-3.5,6.1c3.2-1,4.9-2.3,4.9-3.9C927.6,130.4,927.1,129.7,926.2,129.7z"/>
	<path class="st1" d="M1008.2,203.9c1.1,0,2.6-1.3,4.5-3.9c1.9-2.6,3.8-6,5.6-10.1c1.9-4.1,3-6.2,3.4-6.2s0.6,0.3,0.6,0.8
		c0,1.8-0.9,4.6-2.7,8.4c-5,10.6-9.2,15.9-12.7,15.9c-2.9,0-5-0.5-6.2-1.5c-0.6-0.6-0.9-6.6-0.9-18l-15.5,1.1
		c-1.2,3.3-2.3,6.6-3.2,9.8c-0.9,3.3-1.6,5.3-1.9,6c-0.7,1.6-2.4,2.5-5,2.5c-1.8,0-2.6-0.8-2.6-2.3s1.2-3.7,3.6-6.6
		c0.4-0.6,1.9-3.6,4.3-9.2c-0.9,0.1-1.7,0.1-2.6,0.1c-2.2,0-3.3-0.9-3.3-2.8c0-1.7,0.9-2.6,2.6-2.6c0.1,0,1.9,0.2,5.4,0.5
		c0.9-2.2,2-4.4,3-6.5c8.3-17.3,13.9-25.9,17-25.9c2.3,0,3.9,10.8,4.8,32.4h0.9c0.4,0,0.7,0.3,0.7,0.9c0,0.6-0.5,1.2-1.4,1.6
		C1007.1,198.7,1007.6,203.9,1008.2,203.9z M985.8,186.3c7.4,0,12.1,0,14.1-0.1c-0.1-1-0.1-2.8-0.2-5.3c-0.1-2.5-0.1-4.7-0.2-6.6
		c-0.1-1.9-0.1-3.8-0.2-5.8c-0.3-4.3-0.6-6.5-1.1-6.5c-0.7,0-2.1,2-4.3,6.1c-2.1,4.1-3.8,7.6-5,10.4
		C987.3,182.7,986.2,185.3,985.8,186.3z"/>
	<path class="st1" d="M1050.3,159c3.2-3.7,7.5-5.5,12.8-5.5s7.9,1.8,7.9,5.5c0,2.5-0.6,4.7-1.7,6.8c-1.2,2-2.7,3.8-4.7,5.2
		c-3.8,2.6-8.3,4.4-13.5,5.6c-1.3,10.8-3.1,18.6-5.6,23.2c5.8,2,9.7,3.2,11.7,3.7s4.1,0.8,6.4,0.8c2.2,0,3.8-0.9,4.6-2.7
		c0.8-1.8,1.4-2.7,1.8-2.7c0.8,0,1.1,0.5,1.1,1.4c0,3-1.1,5.5-3.3,7.6c-2.2,2.1-4.6,3.1-7.2,3.1s-5-0.4-7.2-1.3
		c-2.1-0.9-3.5-1.4-4.1-1.7s-1.7-0.8-3.4-1.6c-1.7-0.8-2.9-1.4-3.6-1.7c-2.4,2.5-5.6,3.8-9.6,3.8c-1.6,0-3.1-0.6-4.3-1.8
		c-1.3-1.2-1.9-2.6-1.9-4.3c0-3.6,2-5.4,6.1-5.4c1.8,0,4.2,0.4,7.4,1.2c1.2-3.8,2.5-10.6,3.8-20.6c-0.7,0.1-1.6,0.1-2.8,0.1
		c-1.2,0-1.7-0.2-1.7-0.6c0-1.2,1.6-2,4.9-2.3C1045,167.9,1047.1,162.7,1050.3,159z M1037.8,202.5c-3.7-1.6-5.9-2.4-6.8-2.4
		s-1.3,0.4-1.3,1.3c0,0.9,0.4,1.6,1.2,2.3c0.8,0.6,1.8,0.9,3.1,0.9C1035.3,204.7,1036.5,203.9,1037.8,202.5z M1061.4,169.2
		c2.6-2.1,3.9-4.9,3.9-8.3c0-3.4-1.2-5.1-3.5-5.1c-5.1,0-8.6,6-10.4,17.9C1055.4,172.8,1058.8,171.3,1061.4,169.2z"/>
	<path class="st1" d="M1115.1,203.9c1.1,0,2.6-1.3,4.5-3.9c1.9-2.6,3.8-6,5.6-10.1c1.9-4.1,3-6.2,3.4-6.2s0.6,0.3,0.6,0.8
		c0,1.8-0.9,4.6-2.7,8.4c-5,10.6-9.2,15.9-12.7,15.9c-2.9,0-5-0.5-6.2-1.5c-0.6-0.6-0.9-6.6-0.9-18l-15.5,1.1
		c-1.2,3.3-2.3,6.6-3.2,9.8c-0.9,3.3-1.6,5.3-1.9,6c-0.7,1.6-2.4,2.5-5,2.5c-1.8,0-2.6-0.8-2.6-2.3s1.2-3.7,3.6-6.6
		c0.4-0.6,1.9-3.6,4.3-9.2c-0.9,0.1-1.7,0.1-2.6,0.1c-2.2,0-3.3-0.9-3.3-2.8c0-1.7,0.9-2.6,2.6-2.6c0.1,0,1.9,0.2,5.4,0.5
		c0.9-2.2,2-4.4,3-6.5c8.3-17.3,13.9-25.9,17-25.9c2.3,0,3.9,10.8,4.8,32.4h0.9c0.4,0,0.7,0.3,0.7,0.9c0,0.6-0.5,1.2-1.4,1.6
		C1114,198.7,1114.5,203.9,1115.1,203.9z M1092.7,186.3c7.4,0,12.1,0,14.1-0.1c-0.1-1-0.1-2.8-0.2-5.3s-0.1-4.7-0.2-6.6
		c-0.1-1.9-0.1-3.8-0.2-5.8c-0.3-4.3-0.6-6.5-1.1-6.5c-0.7,0-2.1,2-4.3,6.1c-2.1,4.1-3.8,7.6-5,10.4
		C1094.2,182.7,1093.2,185.3,1092.7,186.3z"/>
	<path class="st1" d="M1180.3,188.5c0,10.3,0.6,15.4,1.7,15.4s2.7-1.3,4.6-3.9c1.9-2.6,3.8-6,5.7-10.1c1.9-4.1,3-6.2,3.4-6.2
		s0.6,0.3,0.6,0.8c0,1.8-1.1,5-3.2,9.6c-4.6,9.8-8.7,14.6-12.4,14.6c-1.4,0-2.6-0.2-3.8-0.5c-1.1-0.3-1.8-0.7-2.1-1
		c-0.6-0.8-0.9-3.5-0.9-8.3c0-11.3,0.4-20.5,1.1-27.6c-3.7,3.6-7,7.7-10,12.3c1.3,5,2,9.4,2,13.1s-0.7,6.5-2.1,8.6
		c-1.4,2-3.2,3-5.3,3c-2.6,0-3.9-2.5-3.9-7.5c0-3.4,1.4-7.9,4.1-13.5c-1.3-4.4-3.1-8.7-5.5-12.9c-1,5.7-2.6,11.6-4.6,17.6
		c-2.1,6-4.2,10.4-6.4,13.4c-2.2,2.9-4.8,4.4-7.8,4.4c-2.2,0-3.3-0.9-3.3-2.6c0-1.4,0.5-2.4,1.4-2.9s2.1-1,3.4-1.3s2.1-0.6,2.5-1
		c2.5-2.6,4.8-7,6.9-13.2s3.8-12.6,4.8-19.2c-2.7-3.5-4.1-6.2-4.1-7.9s0.5-3.3,1.4-4.6s2.4-2,4.5-2c0.6,0,1.2,0.8,1.6,2.4
		c0.4,1.6,0.7,3.3,0.7,5.1c3.8,5.6,6.8,11.4,8.8,17.4c3.5-5.8,7.6-11.2,12.1-16.1c2-11.9,4.2-17.9,6.8-17.9c0.9,0,1.8,0.7,2.8,2
		s1.5,2.7,1.5,4.1c0,4.3-1.9,8.6-5.6,13C1180.7,170.4,1180.3,178.2,1180.3,188.5z M1160.7,191.3c-1.5,3.3-2.3,6.3-2.3,8.9
		c0,2.6,0.3,3.9,0.9,3.9s1.1-0.8,1.4-2.3s0.5-3.2,0.5-4.9C1161.3,195.3,1161.1,193.4,1160.7,191.3z"/>
	<path class="st1" d="M1287.9,202c1.6,0,3.8-1.9,6.5-5.6c2.7-3.7,5.4-8.5,8-14.4c2.7-5.9,4.3-8.8,4.9-8.8s0.9,0.4,0.9,1.1
		c0,2.5-1.3,6.5-3.9,12c-7.1,15.1-13.1,22.7-18.1,22.7c-4.1,0-7.1-0.7-8.9-2.2c-0.8-0.8-1.2-9.4-1.2-25.6l-22.1,1.6
		c-1.7,4.7-3.2,9.4-4.6,14c-1.4,4.7-2.3,7.6-2.7,8.6c-1,2.3-3.4,3.5-7.2,3.5c-2.5,0-3.8-1.1-3.8-3.2s1.7-5.3,5.1-9.5
		c0.6-0.8,2.7-5.2,6.2-13.1c-1.3,0.1-2.5,0.1-3.6,0.1c-3.2,0-4.7-1.4-4.7-4c0-2.4,1.3-3.6,3.8-3.6c0.2,0,2.7,0.2,7.7,0.7
		c1.3-3.1,2.8-6.3,4.3-9.3c11.8-24.7,19.9-37,24.3-37c3.3,0,5.6,15.4,6.9,46.3h1.2c0.6,0,0.9,0.5,0.9,1.4s-0.7,1.7-2,2.3
		C1286.3,194.7,1287,202,1287.9,202z M1255.9,176.9c10.5,0,17.2,0,20.1-0.1c-0.1-1.4-0.2-4-0.3-7.6c-0.1-3.6-0.2-6.7-0.3-9.4
		c-0.1-2.7-0.2-5.4-0.3-8.3c-0.4-6.2-0.9-9.3-1.6-9.3c-1,0-3,2.9-6.1,8.8c-3.1,5.9-5.4,10.8-7.2,14.9
		C1258.1,171.7,1256.6,175.4,1255.9,176.9z"/>
	<path class="st1" d="M1361.2,212.3l3.1-0.8c1,0,1.5,0.5,1.5,1.5c-0.1,1.6-0.9,3.1-2.5,4.4c-1.6,1.3-3.4,1.9-5.4,1.9s-3.6-1-4.8-2.9
		c-1.7-2.8-3.3-7.9-4.8-15.2c-0.7-3.5-1.5-6.4-2.5-8.7c-1.7,0.6-3.5,0.9-5.4,0.9s-3.5-0.4-5-1.2c-1.4-0.8-2.1-1.7-2.1-2.9
		c0.1-2.9,2.5-4.3,7-4.3c2.2,0,4.6,1,7.1,2.9c3.9-3,5.9-7.1,5.9-12.4c0-3.1-0.6-5.9-1.8-8.4c-1.2-2.4-2.8-4.3-4.7-5.7
		c-3.8-2.7-8.1-4.1-12.9-4.1c-0.1,1.4-0.3,3.6-0.7,6.6c-0.6,6.3-1,11.2-1.1,14.6l-0.3,14.9c0,11.5-2.3,17.2-6.8,17.2
		c-2.9,0-4.3-1.2-4.3-3.7c0-0.6,0.4-1.7,1.3-3.2s1.5-3.3,1.8-5.2s0.8-7.8,1.2-17.5c0.4-9.7,1-17.3,1.8-22.8
		c-3.3,0.9-6.1,2.4-8.2,4.3c-2.1,2-3.2,4.3-3.2,6.9c0,1.5-0.3,2.7-1,3.6c-0.7,0.9-1.5,1.4-2.6,1.4c-1.8,0-2.7-1-2.7-2.9
		c0-4.4,1.8-8,5.3-10.9c3.6-2.9,8-4.9,13.2-6.2c1.3-4.2,3-6.3,5.3-6.3c0.9,0,1.3,1,1.3,3c0,0.4-0.1,1.2-0.2,2.4c0.7-0.1,2-0.2,4-0.2
		s4.2,0.3,6.6,0.9c2.5,0.6,4.9,1.5,7.4,2.9s4.5,3.4,6,6.1c1.5,2.7,2.3,5.9,2.3,9.6c0,3.7-0.9,7.1-2.8,10.2c-1.9,3.2-4.3,5.7-7.4,7.6
		c2.1,2.6,3.8,5.9,5.1,9.7c1.2,3.8,2.4,6.8,3.4,8.8C1359.7,211.3,1360.6,212.3,1361.2,212.3z M1337.2,188.2c0,0.5,0.4,0.9,1.3,1.3
		c0.9,0.4,1.8,0.6,2.8,0.6s1.9-0.2,2.7-0.5c-1.3-1.4-2.7-2.2-4.3-2.2C1338,187.5,1337.2,187.7,1337.2,188.2z"/>
	<path class="st1" d="M1400.4,177.4v-16.1c-1.2-0.3-2.9-0.6-5.2-1.2c-2.3-0.5-4-0.9-5.2-1.2c-3.6-0.8-6.4-1.1-8.5-1.1
		c-4,0-6,1.1-6,3.3c0,2.5,0.8,4.5,2.5,6.2s3.2,2.6,4.5,2.6s2.5-0.3,3.5-1s2-1,2.8-1c1.1,0,1.6,0.6,1.6,1.7c0,1.1-0.5,2-1.5,2.7
		s-2.5,1-4.6,1c-3.3,0-6.2-1.4-8.5-4.3c-2.3-2.9-3.5-5.9-3.5-8.9s0.7-5.3,2.1-6.8s3.1-2.3,5.2-2.3c4.8,0,11.9,1.5,21.4,4.5
		c0.8-4,2.2-6,4.3-6c0.9,0,1.4,2.6,1.4,7.7c6.1,1.9,11.4,2.8,15.8,2.8c2.8,0,5.3-0.9,7.5-2.7c0.6-0.5,1.2-0.8,1.7-0.8
		s0.7,0.2,0.7,0.7c0,1.7-1.3,3.2-3.8,4.6c-2.5,1.4-5.5,2-9.1,2c-3.5,0-7.8-0.4-12.8-1.3c0.1,8.7,0.2,14.7,0.2,18s-0.1,6.1-0.3,8.4
		c-0.2,2.3-0.7,4.8-1.5,7.3c-0.8,2.6-1.7,4.7-3,6.4c-1.2,1.7-2.9,3.2-5.1,4.3s-4.7,1.7-7.6,1.7s-5.4-0.7-7.7-2
		c-2.3-1.3-3.4-3.4-3.4-6.1c0-1.7,0.4-3.1,1.3-4.2c0.9-1.1,2.1-1.7,3.5-1.7c1.5,0,2.2,0.3,2.2,1c0,0.3-0.2,0.9-0.6,1.8
		c-0.4,0.9-0.6,1.8-0.6,2.7s0.6,1.9,1.7,3c1.2,1.1,2.9,1.6,5.1,1.6C1397.2,204.9,1400.4,195.8,1400.4,177.4z"/>
	<path class="st1" d="M1449.5,164.9l0.5-2.5c-0.3-3.4-2.6-5.1-6.9-5.1c-2.5,0-4.7,0.9-6.6,2.7s-2.8,3.7-2.8,5.7s0.8,3.7,2.5,5.2
		s3.7,2.8,6,4c2.4,1.2,4.7,2.4,7.1,3.8c2.4,1.4,4.4,3.1,6,5.2c1.7,2.1,2.5,4.6,2.5,7.3c0,5.6-2.2,10-6.6,13.2s-9.2,4.8-14.3,4.8
		s-9.4-0.9-12.8-2.8c-3.4-1.9-5.1-4.7-5.1-8.5c0-2,0.7-3.8,2.1-5.5c1.4-1.6,3.4-2.5,6-2.5c1,0,1.9,0.3,2.7,0.9
		c0.8,0.6,1.3,1.3,1.5,2.3c0,0.9-0.6,1.4-1.7,1.4c-2.1,0-3.2,0.9-3.2,2.7c0.1,2.1,1.1,4,3,5.7s4.6,2.6,8.1,2.6s6.5-1.2,9-3.6
		c2.5-2.4,3.7-5.3,3.7-8.7c0-2.3-0.9-4.3-2.6-6.1s-3.7-3.4-6.1-4.7s-4.8-2.6-7.2-3.9c-2.4-1.3-4.5-2.9-6.2-4.8s-2.6-4-2.6-6.4
		c0-4.2,1.8-7.6,5.4-10.1s7.7-3.8,12.3-3.8c3.1,0,5.9,0.6,8.4,1.9c2.5,1.3,3.8,3.2,3.9,5.8c0,1.5-0.4,2.8-1.1,3.8
		c-0.8,1-1.8,1.5-3.1,1.5C1450.3,166.3,1449.6,165.8,1449.5,164.9z"/>
	<path class="st1" d="M1541.6,203.9c1.1,0,2.6-1.3,4.5-3.9c1.9-2.6,3.8-6,5.6-10.1c1.9-4.1,3-6.2,3.4-6.2s0.6,0.3,0.6,0.8
		c0,1.8-0.9,4.6-2.7,8.4c-5,10.6-9.2,15.9-12.7,15.9c-2.9,0-5-0.5-6.2-1.5c-0.6-0.6-0.9-6.6-0.9-18l-15.5,1.1
		c-1.2,3.3-2.3,6.6-3.2,9.8c-0.9,3.3-1.6,5.3-1.9,6c-0.7,1.6-2.4,2.5-5,2.5c-1.8,0-2.6-0.8-2.6-2.3s1.2-3.7,3.6-6.6
		c0.4-0.6,1.9-3.6,4.3-9.2c-0.9,0.1-1.7,0.1-2.6,0.1c-2.2,0-3.3-0.9-3.3-2.8c0-1.7,0.9-2.6,2.6-2.6c0.1,0,1.9,0.2,5.4,0.5
		c0.9-2.2,2-4.4,3-6.5c8.3-17.3,13.9-25.9,17-25.9c2.3,0,3.9,10.8,4.8,32.4h0.9c0.4,0,0.7,0.3,0.7,0.9c0,0.6-0.5,1.2-1.4,1.6
		C1540.5,198.7,1541,203.9,1541.6,203.9z M1519.2,186.3c7.4,0,12.1,0,14.1-0.1c-0.1-1-0.1-2.8-0.2-5.3s-0.1-4.7-0.2-6.6
		c-0.1-1.9-0.1-3.8-0.2-5.8c-0.3-4.3-0.6-6.5-1.1-6.5c-0.7,0-2.1,2-4.3,6.1c-2.1,4.1-3.8,7.6-5,10.4
		C1520.7,182.7,1519.7,185.3,1519.2,186.3z"/>
	<path class="st1" d="M1575.5,192.1c-1.8,6-3.8,10.5-5.9,13.3s-4.7,4.3-7.7,4.3c-2.2,0-3.3-0.9-3.3-2.6c0-1.4,0.5-2.4,1.4-2.9
		s2.1-1,3.4-1.3s2.1-0.6,2.5-1c2.3-2.5,4.5-6.9,6.5-13.2s3.4-12.8,4.3-19.3c-2.7-2.8-4.1-5.1-4.1-6.9c0-1.8,0.5-3.8,1.5-6.1
		s2.2-3.4,3.6-3.4c0.8,0,1.5,1,2.2,3c0.6,2,0.9,4.5,0.9,7.6c3.3,4.2,5.8,7.7,7.7,10.8c2-6.4,4.6-11.8,8-16.2s7.3-6.6,11.7-6.6
		c1.6,0,2.8,0.6,3.8,1.7s1.4,2.4,1.4,3.8c0,1.4-0.3,2.6-0.8,3.7c-0.5,1.1-1.2,1.7-2.1,1.7s-1.3-0.4-1.3-1.3c0-0.9-0.3-1.6-0.8-2
		c-0.5-0.5-1.2-0.7-2-0.7c-2.6,0-5,1.4-7.3,4.1c-3.2,3.8-5.9,9.3-8,16.4c4.2,8.9,6.2,16.2,6.2,21.7c0,2.3-0.5,4.3-1.5,6
		s-2.5,2.6-4.4,2.6c-4.2,0-6.2-3.5-6.2-10.6c0-5,0.4-9.7,1.1-14.2c-1.9-4-4-7.7-6.4-11.1C1578.7,179.8,1577.3,186,1575.5,192.1z
		 M1588.4,190.7c-0.3,2.3-0.5,4.6-0.5,7s0.2,4.3,0.5,5.6s0.7,2,1,2c0.8,0,1.1-1.3,1.1-3.9C1590.6,198.8,1589.9,195.2,1588.4,190.7z"
		/>
	<path class="st1" d="M1619.9,174.3l0.6,6c0,0.6-0.3,1.1-1,1.5s-1.2,0.6-1.7,0.6c-0.9,0-1.7-0.7-2.3-2.1s-1-2.7-1-3.9
		c0-4.7,1.6-8.6,4.9-11.9c3.2-3.2,7.4-5.7,12.3-7.3c0-2.1,0.5-4.2,1.4-6.1c0.9-1.9,2.3-2.9,4.3-2.9c0.8,0,1.2,1.2,1.2,3.5v4
		c2-0.3,3.5-0.4,4.4-0.4c8.4,0,15,2.3,19.9,7s7.3,10.6,7.3,17.7c0,4.9-0.9,9.3-2.6,13c-1.8,3.8-4.2,6.8-7.2,9
		c-6,4.4-13.3,6.6-21.7,6.6h-2c-0.2,1.8-0.4,2.7-0.8,2.7c-3,0-4.9-0.4-6-1.2c-0.4-0.4-0.7-1.2-0.8-2.3c-5.6-1.6-8.4-3.3-8.4-5.2
		c0-0.6,0.2-1.1,0.7-1.5c0.4-0.3,0.9-0.5,1.5-0.5c0.5,0,2.6,0.8,6.3,2.3c0.6-16.5,1.3-30.7,2.2-42.5c-3.5,1.2-6.3,3-8.4,5.4
		C1621,168.3,1619.9,171.1,1619.9,174.3z M1640.5,159c-0.9,0-1.5,0-2,0.1c-0.3,11-0.6,20.3-0.9,27.8c-0.3,9.8-0.5,15.9-0.7,18.4
		c1.3,0.2,2.6,0.3,4,0.3c6,0,11.2-2.2,15.6-6.7c4.4-4.4,6.6-9.9,6.6-16.4s-2.1-12-6.3-16.6C1652.6,161.3,1647.2,159,1640.5,159z"/>
	<path class="st1" d="M1770.6,186c0.6-0.9,1.5-2.5,2.7-4.7c2.9-5.1,4.6-7.7,5.2-7.7s0.9,0.4,0.9,1.1c0,4.4-2.3,10-6.9,16.7
		c-8.3,12.1-19.3,18.2-33.1,18.2c-3.9,0-7.4-0.9-10.7-2.7s-5.8-4.1-7.7-6.9c-3.9-5.7-5.8-11.6-5.8-17.8c0-15.7,4.1-28.3,12.2-37.9
		c8.1-9.6,17.8-14.4,29-14.4c4.2,0,7.7,1.2,10.4,3.7c2.7,2.5,4,5.6,4,9.4c0,3.8-0.9,7.3-2.8,10.5s-4.2,4.9-6.8,4.9
		c-2.7,0-4-0.7-4-2.2c0-1.6,0.9-3.5,2.6-5.5c1.8-2.1,2.6-4.1,2.6-6.2c0-6.4-3.4-9.6-10.2-9.6c-6.8,0-12.9,4.5-18.4,13.6
		s-8.2,18.5-8.2,28.1c0,6.7,1.9,12.6,5.7,17.8c3.8,5.2,9.1,7.8,15.9,7.8C1755.4,202.2,1763.2,196.8,1770.6,186z"/>
	<path class="st1" d="M1817.1,203.9c1.1,0,2.6-1.3,4.4-3.9c1.9-2.6,3.8-6,5.6-10.1c1.9-4.1,3-6.2,3.4-6.2s0.6,0.3,0.6,0.8
		c0,1.8-0.9,4.6-2.7,8.4c-5,10.6-9.1,15.9-12.5,15.9c-2.9,0-4.9-0.5-6.1-1.4c-0.5-0.5-0.8-1.7-0.8-3.7s0.2-5,0.5-9.1
		c-2.4,4.1-4.9,7.5-7.6,10.2s-5.3,4-7.9,4s-4.7-1.4-6.4-4.2c-1.6-2.8-2.5-6.6-2.5-11.3c0-4.8,0.5-10.7,1.4-17.9
		c0.9-7.1,1.4-12.5,1.4-15.9c0-0.9-0.2-1.3-0.7-1.3c-1,0-2.2,0.7-3.4,2.2c-1.3,1.5-2.2,3.8-2.6,6.9c-0.1,0.7-0.3,1.3-0.8,1.8
		s-1,0.8-1.5,0.8c-0.8,0-1.1-0.6-1.1-1.9c0-1.3,0.6-3,1.9-5.3s2.9-4.4,5-6.3c2-1.9,4-2.8,6-2.8c2.3,0,3.4,1.8,3.4,5.4
		c0,3.6-0.4,8.9-1.2,15.8c-0.8,6.9-1.1,12.1-1.1,15.6c0,8.8,1.6,13.2,4.9,13.2c1.9,0,4.1-1.5,6.6-4.5s4.8-6.6,6.7-10.6
		c1.3-16.1,2.2-26.1,2.7-30c0.1-0.6,1.1-1.5,2.9-2.9s3.2-2.1,4.2-2.1s1.5,1.8,1.5,5.5c0,2.8-0.2,5.2-0.7,7.2c-0.4,2-1,4.4-1.7,7.1
		c-0.7,2.7-1.1,4.7-1.5,6c-0.6,8.4-0.9,15.8-0.9,22.1C1816.7,203,1816.8,203.9,1817.1,203.9z"/>
	<path class="st1" d="M1858.2,159c3.2-3.7,7.5-5.5,12.8-5.5s7.9,1.8,7.9,5.5c0,2.5-0.6,4.7-1.7,6.8c-1.2,2-2.7,3.8-4.7,5.2
		c-3.8,2.6-8.3,4.4-13.5,5.6c-1.3,10.8-3.1,18.6-5.6,23.2c5.8,2,9.7,3.2,11.7,3.7s4.1,0.8,6.4,0.8c2.2,0,3.8-0.9,4.6-2.7
		c0.8-1.8,1.4-2.7,1.8-2.7c0.8,0,1.1,0.5,1.1,1.4c0,3-1.1,5.5-3.3,7.6c-2.2,2.1-4.6,3.1-7.2,3.1s-5-0.4-7.2-1.3
		c-2.1-0.9-3.5-1.4-4.1-1.7s-1.7-0.8-3.4-1.6c-1.7-0.8-2.9-1.4-3.6-1.7c-2.4,2.5-5.6,3.8-9.6,3.8c-1.6,0-3.1-0.6-4.3-1.8
		c-1.3-1.2-1.9-2.6-1.9-4.3c0-3.6,2-5.4,6.1-5.4c1.8,0,4.2,0.4,7.4,1.2c1.2-3.8,2.5-10.6,3.8-20.6c-0.7,0.1-1.6,0.1-2.8,0.1
		c-1.2,0-1.7-0.2-1.7-0.6c0-1.2,1.6-2,4.9-2.3C1852.9,167.9,1855,162.7,1858.2,159z M1845.7,202.5c-3.7-1.6-5.9-2.4-6.8-2.4
		s-1.3,0.4-1.3,1.3c0,0.9,0.4,1.6,1.2,2.3c0.8,0.6,1.8,0.9,3.1,0.9C1843.2,204.7,1844.4,203.9,1845.7,202.5z M1869.3,169.2
		c2.6-2.1,3.9-4.9,3.9-8.3c0-3.4-1.2-5.1-3.5-5.1c-5.1,0-8.6,6-10.4,17.9C1863.3,172.8,1866.7,171.3,1869.3,169.2z"/>
	<path class="st1" d="M1914.6,177.4v-16.1c-1.2-0.3-2.9-0.6-5.2-1.2c-2.3-0.5-4-0.9-5.2-1.2c-3.6-0.8-6.4-1.1-8.5-1.1
		c-4,0-6,1.1-6,3.3c0,2.5,0.8,4.5,2.5,6.2s3.2,2.6,4.5,2.6s2.5-0.3,3.5-1s2-1,2.8-1c1.1,0,1.6,0.6,1.6,1.7c0,1.1-0.5,2-1.5,2.7
		s-2.5,1-4.6,1c-3.3,0-6.2-1.4-8.5-4.3c-2.3-2.9-3.5-5.9-3.5-8.9s0.7-5.3,2.1-6.8s3.1-2.3,5.2-2.3c4.8,0,11.9,1.5,21.4,4.5
		c0.8-4,2.2-6,4.3-6c0.9,0,1.4,2.6,1.4,7.7c6.1,1.9,11.4,2.8,15.8,2.8c2.8,0,5.3-0.9,7.5-2.7c0.6-0.5,1.2-0.8,1.7-0.8
		s0.7,0.2,0.7,0.7c0,1.7-1.3,3.2-3.8,4.6c-2.5,1.4-5.5,2-9.1,2c-3.5,0-7.8-0.4-12.8-1.3c0.1,8.7,0.2,14.7,0.2,18s-0.1,6.1-0.3,8.4
		c-0.2,2.3-0.7,4.8-1.5,7.3c-0.8,2.6-1.7,4.7-3,6.4c-1.2,1.7-2.9,3.2-5.1,4.3s-4.7,1.7-7.6,1.7s-5.5-0.7-7.7-2
		c-2.3-1.3-3.4-3.4-3.4-6.1c0-1.7,0.4-3.1,1.3-4.2c0.9-1.1,2.1-1.7,3.5-1.7c1.5,0,2.2,0.3,2.2,1c0,0.3-0.2,0.9-0.6,1.8
		c-0.4,0.9-0.6,1.8-0.6,2.7s0.6,1.9,1.7,3c1.2,1.1,2.8,1.6,5.1,1.6C1911.5,204.9,1914.6,195.8,1914.6,177.4z"/>
	<path class="st1" d="M1971.5,203.9c1.1,0,2.6-1.3,4.4-3.9c1.9-2.6,3.8-6,5.6-10.1c1.9-4.1,3-6.2,3.4-6.2s0.6,0.3,0.6,0.8
		c0,1.8-0.9,4.6-2.7,8.4c-5,10.6-9.1,15.9-12.5,15.9c-2.9,0-4.9-0.5-6.1-1.4c-0.5-0.5-0.8-1.7-0.8-3.7s0.2-5,0.5-9.1
		c-2.4,4.1-4.9,7.5-7.6,10.2s-5.3,4-7.9,4s-4.7-1.4-6.4-4.2c-1.6-2.8-2.5-6.6-2.5-11.3c0-4.8,0.5-10.7,1.4-17.9
		c0.9-7.1,1.4-12.5,1.4-15.9c0-0.9-0.2-1.3-0.7-1.3c-1,0-2.2,0.7-3.4,2.2c-1.3,1.5-2.2,3.8-2.6,6.9c-0.1,0.7-0.3,1.3-0.8,1.8
		s-1,0.8-1.5,0.8c-0.8,0-1.1-0.6-1.1-1.9c0-1.3,0.6-3,1.9-5.3s2.9-4.4,5-6.3c2-1.9,4-2.8,6-2.8c2.3,0,3.4,1.8,3.4,5.4
		c0,3.6-0.4,8.9-1.2,15.8c-0.8,6.9-1.1,12.1-1.1,15.6c0,8.8,1.6,13.2,4.9,13.2c1.9,0,4.1-1.5,6.6-4.5s4.8-6.6,6.7-10.6
		c1.3-16.1,2.2-26.1,2.7-30c0.1-0.6,1.1-1.5,2.9-2.9s3.2-2.1,4.2-2.1s1.5,1.8,1.5,5.5c0,2.8-0.2,5.2-0.7,7.2c-0.4,2-1,4.4-1.7,7.1
		c-0.7,2.7-1.1,4.7-1.5,6c-0.6,8.4-0.9,15.8-0.9,22.1C1971.1,203,1971.2,203.9,1971.5,203.9z"/>
	<path class="st1" d="M2039.5,212.3l3.1-0.8c1,0,1.5,0.5,1.5,1.5c-0.1,1.6-0.9,3.1-2.5,4.4c-1.6,1.3-3.4,1.9-5.4,1.9s-3.6-1-4.8-2.9
		c-1.7-2.8-3.3-7.9-4.8-15.2c-0.7-3.5-1.5-6.4-2.5-8.7c-1.7,0.6-3.5,0.9-5.4,0.9s-3.5-0.4-5-1.2c-1.4-0.8-2.1-1.7-2.1-2.9
		c0.1-2.9,2.5-4.3,7-4.3c2.2,0,4.6,1,7.1,2.9c3.9-3,5.9-7.1,5.9-12.4c0-3.1-0.6-5.9-1.8-8.4c-1.2-2.4-2.8-4.3-4.7-5.7
		c-3.8-2.7-8.1-4.1-12.9-4.1c-0.1,1.4-0.3,3.6-0.7,6.6c-0.6,6.3-1,11.2-1.1,14.6l-0.3,14.9c0,11.5-2.3,17.2-6.8,17.2
		c-2.9,0-4.3-1.2-4.3-3.7c0-0.6,0.4-1.7,1.3-3.2s1.5-3.3,1.8-5.2s0.8-7.8,1.2-17.5c0.4-9.7,1-17.3,1.8-22.8
		c-3.3,0.9-6.1,2.4-8.2,4.3c-2.1,2-3.2,4.3-3.2,6.9c0,1.5-0.3,2.7-1,3.6c-0.7,0.9-1.5,1.4-2.6,1.4c-1.8,0-2.7-1-2.7-2.9
		c0-4.4,1.8-8,5.3-10.9c3.6-2.9,8-4.9,13.2-6.2c1.3-4.2,3-6.3,5.3-6.3c0.9,0,1.3,1,1.3,3c0,0.4-0.1,1.2-0.2,2.4c0.7-0.1,2-0.2,4-0.2
		s4.2,0.3,6.6,0.9s4.9,1.5,7.4,2.9s4.5,3.4,6,6.1c1.5,2.7,2.3,5.9,2.3,9.6c0,3.7-0.9,7.1-2.8,10.2c-1.9,3.2-4.3,5.7-7.4,7.6
		c2.1,2.6,3.8,5.9,5.1,9.7c1.2,3.8,2.4,6.8,3.4,8.8S2038.9,212.3,2039.5,212.3z M2015.5,188.2c0,0.5,0.4,0.9,1.3,1.3
		c0.9,0.4,1.8,0.6,2.8,0.6s1.9-0.2,2.7-0.5c-1.3-1.4-2.7-2.2-4.3-2.2C2016.3,187.5,2015.5,187.7,2015.5,188.2z"/>
	<path class="st1" d="M2087.1,203.9c1.1,0,2.6-1.3,4.5-3.9c1.9-2.6,3.8-6,5.6-10.1c1.9-4.1,3-6.2,3.4-6.2s0.6,0.3,0.6,0.8
		c0,1.8-0.9,4.6-2.7,8.4c-5,10.6-9.2,15.9-12.7,15.9c-2.9,0-5-0.5-6.2-1.5c-0.6-0.6-0.8-6.6-0.8-18l-15.5,1.1
		c-1.2,3.3-2.3,6.6-3.2,9.8c-0.9,3.3-1.6,5.3-1.9,6c-0.7,1.6-2.4,2.5-5,2.5c-1.8,0-2.6-0.8-2.6-2.3s1.2-3.7,3.6-6.6
		c0.4-0.6,1.9-3.6,4.3-9.2c-0.9,0.1-1.7,0.1-2.6,0.1c-2.2,0-3.3-0.9-3.3-2.8c0-1.7,0.9-2.6,2.6-2.6c0.1,0,1.9,0.2,5.4,0.5
		c0.9-2.2,2-4.4,3-6.5c8.3-17.3,13.9-25.9,17-25.9c2.3,0,3.9,10.8,4.8,32.4h0.9c0.4,0,0.7,0.3,0.7,0.9c0,0.6-0.5,1.2-1.4,1.6
		C2085.9,198.7,2086.4,203.9,2087.1,203.9z M2064.7,186.3c7.4,0,12.1,0,14.1-0.1c-0.1-1-0.1-2.8-0.2-5.3c-0.1-2.5-0.1-4.7-0.2-6.6
		c-0.1-1.9-0.1-3.8-0.2-5.8c-0.3-4.3-0.6-6.5-1.1-6.5c-0.7,0-2.1,2-4.3,6.1c-2.1,4.1-3.8,7.6-5,10.4
		C2066.1,182.7,2065.1,185.3,2064.7,186.3z"/>
	<path class="st1" d="M2129.2,159c3.2-3.7,7.5-5.5,12.8-5.5s7.9,1.8,7.9,5.5c0,2.5-0.6,4.7-1.7,6.8c-1.2,2-2.7,3.8-4.7,5.2
		c-3.8,2.6-8.3,4.4-13.5,5.6c-1.3,10.8-3.1,18.6-5.6,23.2c5.8,2,9.7,3.2,11.7,3.7s4.1,0.8,6.4,0.8c2.2,0,3.8-0.9,4.6-2.7
		s1.4-2.7,1.8-2.7c0.8,0,1.1,0.5,1.1,1.4c0,3-1.1,5.5-3.3,7.6s-4.6,3.1-7.2,3.1c-2.6,0-5-0.4-7.2-1.3c-2.1-0.9-3.5-1.4-4.1-1.7
		s-1.7-0.8-3.4-1.6s-2.9-1.4-3.6-1.7c-2.4,2.5-5.6,3.8-9.6,3.8c-1.6,0-3.1-0.6-4.3-1.8c-1.3-1.2-1.9-2.6-1.9-4.3
		c0-3.6,2-5.4,6.1-5.4c1.8,0,4.2,0.4,7.4,1.2c1.2-3.8,2.5-10.6,3.8-20.6c-0.7,0.1-1.6,0.1-2.8,0.1s-1.7-0.2-1.7-0.6
		c0-1.2,1.6-2,4.9-2.3C2123.9,167.9,2125.9,162.7,2129.2,159z M2116.7,202.5c-3.7-1.6-5.9-2.4-6.8-2.4s-1.3,0.4-1.3,1.3
		c0,0.9,0.4,1.6,1.2,2.3c0.8,0.6,1.8,0.9,3.1,0.9C2114.1,204.7,2115.4,203.9,2116.7,202.5z M2140.2,169.2c2.6-2.1,3.9-4.9,3.9-8.3
		c0-3.4-1.2-5.1-3.5-5.1c-5.1,0-8.6,6-10.4,17.9C2134.3,172.8,2137.6,171.3,2140.2,169.2z"/>
	<path class="st1" d="M2199.8,154.1l1.3,6.3c0,1.5-0.5,2.8-1.6,3.8s-2.3,1.5-3.8,1.5c-1.4,0-2.5-0.7-3.2-2c-0.7-1.4-1-2.8-1-4.5
		c0-4.9,2.1-9.2,6.3-13.2c4.2-3.9,8.9-5.9,14.2-5.9h0.8c1.8-6.8,4.5-10.3,8.1-10.3c1.1,0,1.6,1.4,1.6,4.3c0,0.5-0.1,2.7-0.4,6.5
		c1.4,0.2,2.9,0.4,4.7,0.7c4.2,0.6,7.8,0.9,10.6,0.9s5.7-0.5,8.6-1.4c2.9-0.9,4.9-1.4,5.9-1.4c2.5,0,3.8,1.3,3.8,3.8s-1.3,4.5-4,5.8
		s-6.6,2-11.7,2s-11.4-1.2-18.8-3.5c-1.1,6.2-1.7,10.9-1.9,14c-0.2,3.2-0.4,7.8-0.5,14c3.8-0.2,9-0.3,15.7-0.3c1.2,0,2.2,0.5,3,1.4
		c0.9,0.9,1.3,1.8,1.3,2.8s-0.3,1.8-0.9,2.4c-0.6,0.6-1.3,0.9-2,0.9l-17.1-0.9c-0.4,8.8-0.7,14.8-0.9,18s-1.1,6.1-2.6,8.8
		s-3.3,4-5.4,4c-1.2,0-2.5-0.6-3.8-1.8c-1.4-1.2-2.1-2.4-2.1-3.4c0-1.1,0.2-1.9,0.5-2.5s0.7-1.2,1.1-1.8c0.4-0.6,0.7-1.1,0.9-1.4
		c1.1-2.3,2.1-8.8,3-19.3l-5.3,0.7c-0.7,0-1.3-0.2-1.8-0.7s-0.7-1.1-0.7-1.8s0.1-1.3,0.4-1.8c0.3-0.5,0.8-1,1.6-1.3s1.4-0.5,1.8-0.6
		c1.4-0.4,2.9-0.5,4.3-0.5c0.2-2.2,0.4-6.8,0.7-14s0.8-12.8,1.4-16.9c-0.5-0.1-1.3-0.1-2.4-0.1
		C2203,145.5,2199.8,148.4,2199.8,154.1z"/>
	<path class="st1" d="M2284.3,162.7l0.2-2.6c0-1.4-0.5-2.7-1.6-3.9c-1-1.2-2.4-1.8-4.2-1.8c-3,0-5.8,1.4-8.2,4.1
		c-2.5,2.7-3.7,5.6-3.7,8.6c0,3.1,0.8,5.6,2.4,7.7c2.7-1.2,5.2-1.8,7.6-1.8c2.3,0,4.2,0.4,5.6,1.2c1.4,0.8,2.1,2,2.1,3.5
		c0,1.6-0.8,2.7-2.3,3.5s-3.3,1.1-5.2,1.1c-3.5,0-6.7-1-9.6-2.9c-1.5,1.6-2.7,3.4-3.6,5.6c-0.9,2.1-1.4,4.1-1.4,6
		c0,3.7,1.2,7.1,3.6,10.2c2.4,3.1,5.6,4.6,9.5,4.6c8.3,0,15.1-5.5,20.3-16.4c1.8-3.6,2.9-5.4,3.4-5.4s0.7,0.3,0.7,0.8
		c0,2.5-1.6,6.3-4.7,11.4c-3.1,5.1-6.5,8.6-10.1,10.6s-8.1,3-13.3,3c-5.3,0-9.4-1.5-12.4-4.6s-4.5-6.9-4.5-11.5c0-3,0.9-5.9,2.7-8.7
		s4.1-5.2,6.9-7.2c-3-2.5-4.4-5.4-4.4-8.9c0-4.8,1.9-8.8,5.6-12.1c3.7-3.3,8.2-5,13.5-5c3.5,0,6.4,0.9,8.7,2.7
		c2.4,1.8,3.5,3.9,3.5,6.4c0,1.4-0.4,2.5-1.2,3.4s-1.9,1.3-3.1,1.3C2285.2,165.3,2284.3,164.5,2284.3,162.7z M2278.3,176.5
		c-1-0.5-2.2-0.8-3.5-0.8s-2.6,0.3-3.9,0.9c2.1,2,4.5,2.9,7.1,2.9c0.6,0,1-0.1,1.3-0.4c0.3-0.3,0.5-0.5,0.5-0.7
		C2279.8,177.7,2279.3,177.1,2278.3,176.5z"/>
	<path class="st1" d="M2332.4,164.9l0.5-2.5c-0.3-3.4-2.6-5.1-6.9-5.1c-2.5,0-4.7,0.9-6.6,2.7c-1.9,1.8-2.8,3.7-2.8,5.7
		s0.8,3.7,2.5,5.2s3.7,2.8,6,4c2.4,1.2,4.7,2.4,7.1,3.8c2.4,1.4,4.4,3.1,6,5.2c1.7,2.1,2.5,4.6,2.5,7.3c0,5.6-2.2,10-6.6,13.2
		c-4.4,3.2-9.2,4.8-14.3,4.8s-9.4-0.9-12.8-2.8c-3.4-1.9-5.1-4.7-5.1-8.5c0-2,0.7-3.8,2.1-5.5c1.4-1.6,3.4-2.5,6-2.5
		c1,0,1.9,0.3,2.7,0.9c0.8,0.6,1.3,1.3,1.5,2.3c0,0.9-0.6,1.4-1.7,1.4c-2.1,0-3.2,0.9-3.2,2.7c0.1,2.1,1.1,4,3,5.7s4.6,2.6,8.1,2.6
		s6.5-1.2,9-3.6c2.5-2.4,3.7-5.3,3.7-8.7c0-2.3-0.9-4.3-2.6-6.1c-1.7-1.8-3.7-3.4-6.1-4.7c-2.4-1.3-4.8-2.6-7.2-3.9
		c-2.4-1.3-4.5-2.9-6.2-4.8s-2.6-4-2.6-6.4c0-4.2,1.8-7.6,5.4-10.1c3.6-2.5,7.7-3.8,12.3-3.8c3.1,0,5.9,0.6,8.4,1.9
		c2.5,1.3,3.8,3.2,3.9,5.8c0,1.5-0.4,2.8-1.1,3.8c-0.8,1-1.8,1.5-3.1,1.5C2333.1,166.3,2332.4,165.8,2332.4,164.9z"/>
	<path class="st1" d="M2382.2,177.4v-16.1c-1.2-0.3-2.9-0.6-5.2-1.2c-2.3-0.5-4-0.9-5.2-1.2c-3.6-0.8-6.4-1.1-8.5-1.1
		c-4,0-6,1.1-6,3.3c0,2.5,0.8,4.5,2.5,6.2s3.2,2.6,4.5,2.6s2.5-0.3,3.5-1s2-1,2.8-1c1.1,0,1.6,0.6,1.6,1.7c0,1.1-0.5,2-1.5,2.7
		s-2.5,1-4.6,1c-3.3,0-6.2-1.4-8.5-4.3c-2.3-2.9-3.5-5.9-3.5-8.9s0.7-5.3,2.1-6.8s3.1-2.3,5.2-2.3c4.8,0,11.9,1.5,21.4,4.5
		c0.8-4,2.2-6,4.3-6c0.9,0,1.4,2.6,1.4,7.7c6.1,1.9,11.4,2.8,15.8,2.8c2.8,0,5.3-0.9,7.5-2.7c0.6-0.5,1.2-0.8,1.7-0.8
		s0.7,0.2,0.7,0.7c0,1.7-1.3,3.2-3.8,4.6c-2.5,1.4-5.5,2-9.1,2c-3.5,0-7.8-0.4-12.8-1.3c0.1,8.7,0.2,14.7,0.2,18s-0.1,6.1-0.3,8.4
		c-0.2,2.3-0.7,4.8-1.5,7.3c-0.8,2.6-1.7,4.7-3,6.4c-1.2,1.7-2.9,3.2-5.1,4.3c-2.2,1.1-4.7,1.7-7.6,1.7c-2.9,0-5.5-0.7-7.7-2
		c-2.3-1.3-3.4-3.4-3.4-6.1c0-1.7,0.4-3.1,1.3-4.2c0.9-1.1,2.1-1.7,3.5-1.7c1.5,0,2.2,0.3,2.2,1c0,0.3-0.2,0.9-0.6,1.8
		c-0.4,0.9-0.6,1.8-0.6,2.7s0.6,1.9,1.7,3c1.2,1.1,2.8,1.6,5.1,1.6C2379.1,204.9,2382.2,195.8,2382.2,177.4z"/>
</g>
<g>
	<path class="st1" d="M2482.4,163.1c1.9-0.5,2.9,0.3,4.1,1.8c1.5,1.9,3.7,3.2,5.6,4.7c1.2,0.9,2.3,2,3.5,2.9
		c-1.2-0.5-2.5-0.9-3.9-1.5c0.3,1.1,0.5,1.9,0.9,3c1.1-0.5,2.1-1,3.1-1.5c3.6,1.9,7.3,3.8,10.8,5.8c1.3,0.8,2.4,1.9,3.6,2.9
		c-0.2,0.8-0.3,1.5-0.6,2.5c-0.3-2.7-2-1.8-3.3-1.5c-1.1,0.3-1.8,0.9-1.5,2.1c0.9,3.1,2.9,0.3,4.4,0.8c-1.5,3.7-3.3,6.8-7.3,8.4
		c-4.1,1.6-7.8,4.1-12.5,4.4c-2.1,0.2-4.1,2-6.6,3.3c-2-0.8-2.6,1.3-3.2,3.2c-1.8,0.5-4.4-2.6-5.2,1.1c-1.4-0.2-2.5-0.3-3.7-0.5
		l0.1,0.1c-0.2-9.3-0.3-18.7-0.4-28c-0.3,0-0.5,0-0.8-0.1c-0.2,0.7-0.3,1.5-0.4,2.1c-1.4-0.3-2.6-0.5-3.8-0.8l0.1,0.1
		c-0.6-0.6-1.1-1.2-1.8-2c-1.2,1.9-2.8,1.6-4.5,1c-4.1-1.3-8.3-2.3-12.2-3.8c-2-0.8-3.8-2.4-5.6-3.8c-1.2-0.9-0.9-1.9,0.2-2.8
		c2.3-2,4.5-4.2,6.7-6.3c0.9-0.9,1.8-2.1,2.7-3.1c1.2-1.2,2.3-1,3.3,0.2c0.1-0.2,0.3-0.3,0.3-0.4c-0.7-0.5-1.3-1-2.1-1.6
		c0.4-0.3,1.1-0.9,2-1.7c0.8,1.8,1.4,3.2,2,4.8c0.2-0.1,0.3-0.2,0.5-0.3c-0.5-1.5-0.9-3.1-1.5-4.5c-0.1-0.2-0.2-0.3-0.1-0.4
		c0.6-0.7,1.1-1.8,1.7-1.8c2.1-0.2,2.6-4.3,5.6-2.3c0.7,0.4,1.4,0.9,2.5,1.5c-1.5,0.6-2.6,1-3.8,1.5c0.1,0.3,0.3,0.5,0.3,0.8
		c1-0.3,2.1-0.6,3.3-0.9c0.5,1,1,2,1.5,3.2c0.7-0.3,1.4-0.6,2.2-0.9c0.5,0.8,1.1,1.5,1.7,2.4c0.8-0.5,1.5-1,2.3-1.5
		c0.6,0.7,1.1,1.3,1.8,2c0.6-0.7,1-1.3,1.5-2c0.6,0.5,1.2,1,2,1.7c0.6-0.8,1.2-1.5,1.8-2.2c0.7,0.5,1.4,1,2.1,1.5
		c0.3-0.4,0.6-0.8,1.2-1.5c-0.2,1.5-0.3,2.5-0.5,3.6c-0.8-0.4-1.5-0.9-2.3-1.4c-2,2.5-1.9,2.5,0.9,4.2c0.4-0.9,0.9-1.9,1.3-2.8
		c0.1,0.8,0.4,1.5,0.3,2.3c-0.1,0.7-0.4,1.4-0.7,2c-1.2-0.5-2.3-0.9-3.7-1.5c-0.5,0.7-1,1.3-1.5,1.8c-1.3-0.4-2.3-0.8-3.2-1.1
		c-0.2,0.3-0.3,0.6-0.4,0.9c2.2,2.1,4,4.9,7,6.1c0.3-0.3,0.5-0.6,0.8-0.9c-0.9-0.8-1.8-1.5-2.6-2.3c-0.5-0.4-1.5-1.2-1.5-1.4
		c0.3-0.8,1-1.4,1.6-2c0.2,0.1,0.3,0.3,0.4,0.3c-0.4,0.6-0.9,1.3-1.4,2C2480.3,166,2481.2,164.2,2482.4,163.1z M2454.7,159.7
		c1.4,4.5,1.4,4.5,5.2,3.1c1.7,3.5,1.7,3.5,5.7,1.5c0.4,0.7,0.9,1.5,1.4,2.3c0.2-0.2,0.3-0.3,0.4-0.4c-0.6-0.9-1.2-1.8-1.8-2.7
		c0.9-0.6,1.7-1,1.9-1.1c-1-1-2-2-3-3c-0.9,0.3-1.8,0.8-2.4,1c-1.5-0.9-0.8-3.5-3.1-3.3c0.6,1.4,1.1,2.6,1.7,4.1
		c-1.3,0.5-2.3,1-3.4,1.5c-2-4.2-2.2-4.3-4.7-3c0.1,0,0.1,0.1,0.2,0.1C2453.3,159.7,2453.9,159.7,2454.7,159.7z M2491.4,182.2
		c-0.3,1.4-1,2.7-0.7,3.5c0.7,1.2,3.2,0.5,4.8-1.4C2494.3,183.7,2493.1,183,2491.4,182.2z M2502.2,192.4c1.2-1,2.2-1.6,2.7-2.5
		c0.3-0.5,0.3-1.6-0.1-2.2c-0.3-0.4-1.2-0.9-1.7-0.8s-1.1,0.9-1.2,1.4C2501.9,189.5,2502.1,190.7,2502.2,192.4z M2501.6,186
		c-2.7-0.6-4.1,0.2-4.7,2.5c-0.1,0.4,0.1,1.1,0.4,1.5c0.2,0.2,1.1,0.1,1.4-0.3C2499.6,188.6,2500.6,187.4,2501.6,186z M2468.5,161.5
		c0.8,0.9,1.5,1.8,2.1,2.6c-0.6,0.8-1.2,1.5-1.8,2.2c0.6,0.5,1.1,0.9,1.6,1.3c1.8-2,2-3.8,0.8-5.4
		C2470.6,161.5,2470.1,160,2468.5,161.5z M2497,191.3c-2.6-1.5-5-0.4-5.6,2c-0.1,0.3,0,0.8,0.3,0.9c0.2,0.2,0.8,0.2,1,0
		C2494,193.4,2495.4,192.4,2497,191.3z M2457.7,176.3c0.9-2,0.7-3.8-1.1-4.8c-1.5-0.9-3.4,0.5-4.5,3.2c1.5-0.9,2.9-1.5,4.2-2.2
		C2456.8,173.9,2457.3,175.1,2457.7,176.3z M2443.7,167.7c0.2,0.3,0.3,0.6,0.4,0.9c1.1-0.3,2.2-0.6,3.3-0.9c0,1.7,0,3.3,0,4.9
		c2.1-1.6,2.2-2.2,0.6-6.2C2446.6,166.7,2445.2,167.2,2443.7,167.7z M2490.3,171.1c-1.6,0.5-2.8,0.9-4.1,1.4c0,0.3-0.1,0.5-0.1,0.8
		c1.5,0.7,2.8,1.3,4.7,2.1C2490.6,173.6,2490.5,172.4,2490.3,171.1z M2458,156.1c3.1-0.9,3.2-1.5,1.7-4.1c-0.9,0.2-1.7,0.4-2.7,0.7
		C2457.4,153.9,2457.7,155,2458,156.1z M2472.8,157.2c-0.9,0.7-1.7,1.1-2.5,1.7c0.8,1.1,1.5,2,2,3c0.9-0.9,1.5-1.5,2.1-2.1
		C2474,158.9,2473.5,158.2,2472.8,157.2z M2461.3,155.8c0.5,1,0.9,1.9,1.3,2.7c0.9-0.5,1.8-1,2.6-1.5c-0.3-0.9-0.6-1.6-0.9-2.4
		C2463.3,155,2462.5,155.3,2461.3,155.8z M2458.6,171.5c0.3-0.1,0.5-0.1,0.8-0.2c-0.5-1.2-0.9-2.3-1.6-4c-1.3,0.9-2.3,1.7-3.3,2.4
		c0.2,0.3,0.3,0.4,0.4,0.7c0.9-0.3,2-0.5,2.9-0.7C2458,170.3,2458.4,170.9,2458.6,171.5z M2492.3,175.7c0.9,0.3,1.6,0.6,1.6,0.5
		c1-0.6,1.6-0.9,2.1-1.2c0,0.7,0,1.4,0,2.1c0.4,0.2,1.1,0.5,2.2,1c-0.7-1.8-1.1-3.2-1.6-4.6C2495.2,174.3,2494,174.9,2492.3,175.7z
		 M2485.1,176.5c0.4-0.8,0.8-1.3,0.9-1.6c-2-1.5-4-2.8-5.9-4.2c-0.1,0.1-0.1,0.2-0.2,0.2C2481.6,172.6,2483.2,174.4,2485.1,176.5z
		 M2475.7,169c-0.1,0.1-0.3,0.2-0.3,0.3c0.9,1.9,1.5,3.8,2.5,5.6c0.2,0.3,1.1,0.3,2.1,0.4C2478.3,172.8,2477,170.9,2475.7,169z
		 M2476.7,161.5c2.3-1.9,2.3-2.2-0.2-3.8C2475.2,158.9,2474.2,160.1,2476.7,161.5z M2464.2,171.2c0.6,0.9,1.1,1.6,1.7,2.3
		c0.3-0.2,0.5-0.3,0.8-0.4c-0.4-0.9-0.7-1.8-1.4-2.5c-0.3-0.3-1.5-0.4-2-0.2c-0.5,0.3-0.7,1.1-1,1.7c0.2,0.1,0.3,0.2,0.5,0.3
		C2463.3,172,2463.7,171.7,2464.2,171.2z M2473.5,173.4c-0.8-0.7-1.3-1.1-2-1.6c-0.9,1.3-1.5,2.3-2.2,3.3c0.2,0.2,0.3,0.3,0.4,0.4
		C2470.9,174.9,2472.1,174.2,2473.5,173.4z M2498.9,178.3c1.5,0.9,2.3,1.5,3.8,2.3c-0.3-1.6-0.5-2.6-0.8-3.8
		C2500.9,177.3,2500.3,177.6,2498.9,178.3z M2480.9,170.2c1.3,0.9,2.3,1.7,3.7,2.8c-0.3-1.6-0.4-2.6-0.6-3.5
		C2483,169.8,2482.2,170,2480.9,170.2z M2485.8,170.6c1.2-0.3,2.1-0.5,3.7-0.9c-1.5-0.9-2.6-1.4-3.7-2
		C2485.8,168.6,2485.8,169.4,2485.8,170.6z M2450.6,168.3c0.2-0.1,0.3-0.1,0.5-0.2c-0.3-1.4-0.6-2.7-0.9-4.4c-1.1,0.3-2,0.4-3,0.7
		c0,0.2,0.1,0.4,0.1,0.6c0.8-0.1,1.5-0.1,2-0.2C2449.8,166.1,2450.2,167.2,2450.6,168.3z M2446.1,172.5c0.2-1.2,0.3-2,0.3-3.2
		c-1.3,0.4-2.2,0.8-3.6,1.3C2444,171.3,2444.8,171.8,2446.1,172.5z M2481.1,195.4c1.9-0.5,3.2-0.9,4.7-1.2c-0.7-0.9-1.2-1.6-1.6-2.3
		C2485.1,194.6,2482,193.5,2481.1,195.4z M2487.9,188.3c0.1,0.2,0.2,0.4,0.3,0.6c0.5-0.2,1-0.4,1.5-0.6c-0.1-0.3-0.3-0.5-0.3-0.8
		C2488.9,187.8,2488.4,188.1,2487.9,188.3z"/>
	<path class="st1" d="M2463.5,121.6c0.5,0.7,0.9,1.3,1.5,2c0.8-0.6,1.5-1.3,2.4-2c-0.1,0.8-0.1,1.5-0.2,2c0.2,0.1,0.3,0.2,0.4,0.2
		c0.4-0.6,0.9-1.2,1.5-2c0.3,0.8,0.4,1.3,0.8,2.5c0.3-1.2,0.4-1.8,0.7-2.7c0.6,0.8,0.9,1.3,1.6,2.3c0.2-1.1,0.3-1.7,0.3-2.3
		c0.7,0.3,1.4,0.6,2,0.9c0-0.6,0-1.2,0-2c0.7,0.4,1.3,0.7,2.3,1.3c-0.4-1.2-0.6-1.8-0.9-2.9c0.9,0.4,1.5,0.7,2.4,1.1
		c-0.1-0.8-0.2-1.4-0.3-2c0.2,0.1,0.3,0.3,0.4,0.3c0.7-0.9,1.5-1.7,2-2.6c0.7-1.1,1.1-2.4,1.7-3.5c0.9-1.6,1.6-3.6,4.2-3.2
		c-0.1-0.9-0.2-1.5-0.3-2.2c1.5,1.5,1.5,2.1-0.3,4.4c0.7-0.3,2-0.5,2-0.7c0-1.3,0-2.8-0.7-3.8c-1.2-1.5-1.9-2.6-0.4-3.8
		c1.5,1.2,3.1,2.3,4.5,3.5c0.5,0.4,1.4,1.1,1.3,1.5c-0.3,1-0.9,2-1.5,2.9c-0.3,0.3-0.9,0.3-1.6,0.6c2.7,5.1-0.5,9.2-1.7,13.5
		c-0.9-0.1-1.5-0.3-2.2-0.3c-0.1,0-0.2,0.8-0.3,1.2c0.5,0.1,1,0.2,2.2,0.4c-0.3,2.1-0.7,4.4-0.9,6.8c-0.2,1.5-0.3,3.2-0.6,4.7
		c-0.5,3.3-0.9,6.7-1.7,9.9c-0.9,3.4-3.9,3.6-6.7,3.8c-3.3,0.3-6.7,0.2-9.8-1.6c-1.3-0.8-2.3-2-4-2.3c-0.7-0.2-1.5-2.4-1.3-3.5
		c0.3-2.8,0-5.2-1.8-7.5c-1.2-1.5-1.1-3-0.3-4.9C2461.7,128.5,2462.4,125.1,2463.5,121.6z M2477.7,128.8c-0.3-0.4-0.7-0.9-1-1.5
		c-1.5,2.6-5,2-9.7-3.2c0.9,3.4,1.7,6.1,2.5,9c1-0.5,1.1-2,0.1-3.7c1.9-1.9,1.4,0.5,1.8,0.9c1.6,0.2,3.2,0.9,4.6-0.3
		c0,0,0.1,0.2,0.2,0.2c0.4,0.3,0.9,0.4,1.4,0.6C2477.7,130.1,2477.7,129.5,2477.7,128.8c0.9,0.1,1.6,0.1,2.7,0.1
		c-1.7-1.7-0.3-2.2,0.6-2.6c-0.2-1.4-0.4-2.4-0.5-3.1C2479.7,124.9,2478.7,126.8,2477.7,128.8z M2479.3,143.2
		c-0.1-1.8-1.4-3.1-3.1-3c-2.3,0.1-3.8,1.5-3.7,3.5c0.1,1.7,1.5,3,3.2,3C2477.6,146.7,2479.4,145.1,2479.3,143.2z"/>
	<path class="st1" d="M2475.6,113.1c-0.2-0.9-0.3-1.6-0.5-2.5c0.5-0.4,1.3-1,2-1.6c-0.1-0.2-0.2-0.3-0.3-0.4c-0.7,0.1-1.4,0.2-2,0.3
		c2.2-1.4,2-3,0.7-5.5c-0.7,1.4-1.2,2.3-1.8,3.6c-0.3,0-0.9,0.1-1.5,0.2c2.2,0.9,2.2,2.3,1.4,4.1c-1.5,3.2-1.5,3.6,1.5,5.7
		c0.3,0.2,0.5,0.3,0.9,0.7c-1.5,2.3-3.6,3.2-6.1,3.2c-1.5,0-3.2,0.4-3.8-1.7c-0.9,0.3-1.8,0.6-2.6,0.7c-0.6,0.1-1.7,0-1.9-0.3
		c-1.3-2.2-2.5-4.4-3.4-6.8c-0.7-1.7-0.9-3.6-1.3-5.6c2.3,0.2,4-0.8,4.1-3c0-0.6-2.2-1.3-3.6-2c0.5-1.7,1.9-3.4,3.9-4.4
		c0.4-0.2,1,0.1,1.5,0.1c0.3,0,0.7,0,1,0c0-0.4-0.1-0.8-0.1-1.2c1.9-0.2,4-0.3,6.1-0.8c0.7-0.2,0.9-1.6,1.5-2.6
		c2.1,0.7,4.3,1.4,6.3,2c0.3,0.1,0.5,0.6,0.8,0.9c1,1.3,2.3,2.4,3.2,3.8c0.4,0.7,0.4,1.8,0.3,2.6c-0.3,1.2-1,2.2,0.2,3.4
		c0.3,0.2,0,1.1-0.3,1.5c-1.4,2.2-2.8,4.4-4.3,6.6c0,0.1,0,0.2-0.1,0.3c-0.1,0.9,0.5,2.6-1.2,2.3c-1.8-0.3-2.7-2-3.2-4
		C2474.1,112.9,2474.9,113,2475.6,113.1c-0.5,0.3-1,0.5-2,0.9c1,0.7,1.7,1.1,2.4,1.6c0.7-1.6,1.2-2.9,1.7-4.1
		c-0.2-0.1-0.4-0.2-0.6-0.3C2476.7,111.9,2476.2,112.5,2475.6,113.1z M2480.3,104c-3.2,0.3-3.9,0.9-3.2,2.9c0.4,1.1,0.8,2.2,1.5,4
		c0.3-0.9,0.6-1.6,0.7-2.3c0.2-0.7,0-1.5,0.2-2C2479.6,105.7,2479.9,104.9,2480.3,104z M2472.7,99.4c1.8,0.7,3.3,1.4,5.1,2
		c0,0.2,0.1,0.7,0.2,1.2c0.1,0,0.3,0,0.3,0c0.2-0.6,0.3-1.2,0.6-2c-2.4,0.2-3.2-0.9-2.9-3C2473.3,97.2,2473.2,97.3,2472.7,99.4z"/>
	<path class="st1" d="M2485.3,90.5c-0.3-0.1-0.4-0.6-0.6-0.9c0.1,0.5,0,1.1,0.3,1.5c0.3,0.6,1,0.9,1.4,1.5c0.6,1,1.2,2.2,1.5,3.3
		c0.3,1.1,0.5,2.4,0.2,3.3c-0.9,2.1-0.2,3.6,1.5,4.8c1.1,0.8,2.4,1.2,3.8,1.9c1.1-4.7,2.9-8.9,0.3-13.4c-1.2-2-1.8-4.4-2.7-6.8
		C2490.5,88.2,2487.1,91.1,2485.3,90.5z"/>
	<path class="st1" d="M2482.3,77.2c-0.7,1.3-0.7,3.1-0.3,4.5c0.3,1.6,1.5,3,2.2,4.5c0.4,0.9,0.6,1.9,0.9,2.7
		c1.8-1.1,3.6-2.2,5.6-3.5c-0.7-0.1-0.9-0.3-3.1-2.8c-2.1-2.5-2-2.7,0.8-4.3c1.5-0.8,2.8-1.9,4.2-2.7c-0.1-0.2-0.2-0.3-0.3-0.5
		c-1.4,0.3-2.7,0.7-4.6,1.1c0.8-2.3,1.3-4.4,2-6.3c0.3-0.9,0.9-1.7,0.9-2.5c-0.3-0.4-0.5-0.9-0.8-1.2c-0.2-0.2-0.4-0.3-0.7-0.4
		C2486.7,69.5,2484.3,73.2,2482.3,77.2z"/>
	<path class="st1" d="M2446.6,102.4c-0.1,1.9-0.7,3.9-0.3,5.7c0.6,2.1,2,4,3.6,6.7c-0.6,0.8-1.6,2.3-2.8,3.8
		c-0.7,0.9-1.5,0.9-2.3-0.1c-1.5-2-3.2-3.8-4.6-5.7c-0.3-0.5-0.4-1.3-0.3-2c0.2-2.2,0.5-4.4,0.6-6.7c0.1-1.7-0.2-3.4-0.3-5.3
		c0.8-0.9,2-2.2,3-3.7s0.3-2.7-1-3.7c-1.9-1.4-3.8-2.7-5.6-4.7c1.5,0.1,3,0.2,5,0.3c-0.2-1-0.1-2.8-0.7-3.1
		c-1.3-0.5-2.8-0.3-4.4-0.4c0.3-0.3,0.9-0.7,1.6-1.2c-0.4-0.4-0.9-0.9-1.8-1.6c1.1,0.3,1.7,0.4,2.6,0.7c-0.2-0.9-0.3-1.7-0.7-3.1
		c2.7,3.5,6.8,5.1,7.4,9.5c0.5,3.3,0.7,6.7,1,10c0.1,0.9,0.2,1.6,0.3,2.5c-3-2-5.1-2.3-6.7-0.9C2442,101.3,2444,102.5,2446.6,102.4z
		"/>
	<path class="st1" d="M2468.5,220.3c-0.1,0.4-0.3,0.9-0.3,1.5c0.7-0.1,1.2-0.3,2.1-0.3c-0.3,0.9-0.6,1.5-0.9,2.1
		c0.3,0.1,0.8,0.2,1.2,0.3c-0.3,0.5-0.5,1.1-0.8,1.6c-0.7-0.3-1.3-0.7-2.2-1.1c0.1,0.9,0.1,1.3,0.2,2c2.2-1.3,2.8,0.3,3.8,1.8
		c0.3-0.7,0.5-1.3,0.3-1.8c-0.3-0.9-0.9-1.8-1.3-2.6c0-0.5,0.1-1.1,0.1-1.6c0.5,0.2,1.3,0.2,1.6,0.5c0.6,0.6,1.4,1.6,1.2,2
		c-0.9,2.5,0.8,4.3,1.5,6.2c0.8,1.9,0.5,3-1.8,3.5c-0.9,0.2-1.6,1.5-2.6,2c-0.9,0.6-2,1.5-2.8,1.3c-1.8-0.4-3.4-1.5-5.2-2.3
		c2.5-2.1,4.8-4.1,7.3-6.4c-3.8-3.3-8.6-5-9.8-10c0.2-0.1,0.5-0.3,0.9-0.4c-0.6-0.8-1.4-1.5-1.7-2.3c-0.3-0.7-0.4-1.8-0.1-2.3
		c1.5-2.3,1-4.3-1.4-5.7c-0.3-0.2-0.4-0.3-0.6-0.6c-0.1-0.1,0-0.3,0,0.1c1-0.6,1.9-1.1,2.6-1.5c-0.2-0.3-0.3-0.5-0.4-0.8
		c-0.5,0.3-1,0.6-1.7,1c-0.3-0.4-0.6-0.9-0.9-1.6c0.8-0.2,1.4-0.3,2-0.5c-0.3-0.9-0.6-1.7-0.9-2.6c0.2-0.2,0.3-0.3,0.4-0.4
		c0.6,0.5,1.2,1,1.9,1.5c0.4-0.5,0.9-1.2,1.5-1.8c0.3,0.2,0.4,0.3,0.7,0.4c-0.3,0.5-0.5,1-0.9,1.8c0.7-0.3,1.1-0.6,1.6-0.8
		c0.2,0.1,0.3,0.3,0.5,0.3c-0.4,0.7-0.9,1.4-1.5,2.1c0.2,0.1,0.7,0.3,1.5,0.8c-0.6,1.2-1.6,2.3-1.7,3.6c-0.1,1.1,0.9,2.2,1.6,3.7
		c0,0.1-0.3,0.6-0.5,1.1c0.9,0.4,1.6,0.9,2.5,1.2c-0.1,0.3-0.3,0.4-0.3,0.7c-0.6-0.1-1.3-0.2-2.3-0.3c1,1.6,1.9,2.9,2.7,4.3
		c-0.2,0.2-0.3,0.3-0.4,0.4c-0.6-0.3-1.2-0.7-2.1-1.3c0.7,1.5,1.1,2.6,1.5,3.3c0.7-0.3,1.4-0.6,2.1-1c0.2-0.3,0.5-0.9,0.8-1.6
		C2467.8,220,2468.1,220.1,2468.5,220.3z"/>
	<path class="st1" d="M2456.7,213.1c-0.9-3.5-2-7-2.8-10.6c-1-4.6-2.3-9.3-2.5-14s-2.1-8.8-3.2-13.8c2.6,0.9,4.9,1.5,7,2.4
		c0.5,0.3,0.9,1.5,0.9,2.4c0.1,7,0,14,0.3,21c0.2,4.2,0.7,8.4,1.1,12.6C2457.1,213,2456.9,213.1,2456.7,213.1z"/>
	<path class="st1" d="M2451.6,114.8c0.5,1.2,0.9,2.2,1.3,3.2c0.3-0.3,0.7-0.7,1-1c-0.5,0.3-0.9,0.6-0.9,0.6c2.6,1.3,5.6,2.6,8.4,3.9
		c0.3,0.2,0.5,0.8,0.5,1.1c-0.7,3.3-1.3,6.7-3.8,9.9c-1.7-3.8-6.1-5.5-6.4-10c-3.8-0.3-3.8-0.3-4.6-1.5
		C2448.5,119,2450,117,2451.6,114.8z"/>
	<path class="st1" d="M2468.5,220.3c-0.3-0.1-0.7-0.3-1-0.3c-1.3-1.2-1.6-2.6-1.5-4.4c0.2-2.2-0.8-4.4-1.1-6.7
		c-0.3-2.1-0.5-4.2-0.7-5.9c2.1,0.7,4.4,1.4,6.7,2l-0.1-0.1c-0.3,5.8,2,11,4.1,16.1C2472.3,220.6,2470.3,220.4,2468.5,220.3z"/>
	<path class="st1" d="M2457.7,197c-0.2-0.6-0.4-1.1-0.6-1.8c0.7-0.3,1.3-0.7,2-1c0-0.1,0-0.3-0.1-0.3c-0.6,0-1.2,0-1.9,0
		c0-0.6,0-1.2,0-1.6c1.3,0.2,2.6,0.3,3.8,0.4c1.3,0.2,2.7,0.2,3.8,0.8c1.3,0.7,2.2,2,3.6,3.3c-1.5,1-2.8,2-4.3,3c0-0.8,0-1.4,0-2
		c0.5-0.1,1.2-0.1,1.7-0.4c0.3-0.3,0.5-0.9,0.4-1.3c0-0.3-0.7-0.4-1-0.6c-0.6-0.2-1.3-0.3-1.9-0.3h0.1c-0.4-0.3-0.9-0.9-1.4-0.9
		c-0.3-0.1-1.1,0.4-1.1,0.6c0.2,1.8,0.4,3.6,0.7,5.4c-0.2,0.2-0.4,0.3-0.6,0.4c-0.4-0.4-0.9-0.9-1.2-1.4s-0.6-1.1-0.9-1.7
		C2458.4,197.4,2458,197.2,2457.7,197z"/>
	<path class="st1" d="M2457,185.7c-0.5-1.9,1.8-2.5,2-4c1.3,0.4,2.6,0.9,3.8,1.5c0.3,0.1,0.1,1,0.2,2c-1-0.8-1.5-1.2-2.6-2
		c0.7,3.2,1.3,5.7,1.9,8.6c0,0-0.4,0.3-0.9,0.4c-0.3-0.7-0.7-1.2-1-1.8c-0.5,0.3-1,0.7-1.8,1.2c-0.2-0.3-0.3-0.8-0.6-1.2
		C2459.2,188.4,2458,187,2457,185.7z"/>
	<path class="st1" d="M2468.2,188.2c-1.2,1-2.4,2-3.6,3c-2.8-2-3.5-3.9-2.2-5.4C2463.7,184.5,2465.2,185.1,2468.2,188.2z"/>
	<path class="st1" d="M2469.8,187.4c-1.9-1.2-3.4-2.1-5.2-3.2c1.5-1.6,2.7-3,4-4.3c0.3,0.1,0.4,0.2,0.7,0.3c-0.2,0.7-0.2,1.5-0.4,2
		c-0.3,0.7-0.9,1.2-1.4,1.8c0.7,0.3,1.4,0.7,2.3,1.1C2469.8,185.5,2469.8,186.3,2469.8,187.4z"/>
	<path class="st1" d="M2479.7,152.6c-0.5,0.8-0.9,1.4-1.5,2.2c-0.6-0.5-1.1-0.9-1.7-1.4c-0.5,0.6-1,1.1-1.7,1.8
		c-0.6-0.7-1.2-1.3-1.8-2c-0.8,0.6-1.5,1.1-2.4,1.8c-0.3-0.9-0.5-1.6-0.8-2.4C2473.2,152.6,2476.3,152.6,2479.7,152.6z"/>
	<path class="st1" d="M2456.7,180.6c0-0.7,0-1.5,0-2.8c2.1,0.3,4.1,0.6,6.5,1c-0.4,1-0.8,1.9-1.4,3.2c-0.6-1.8-0.7-3.5-2.5-1.5
		C2459,180.9,2457.7,180.6,2456.7,180.6z"/>
	<path class="st1" d="M2463.7,200.9c2.4-1.5,4.2-2.6,6.3-3.8c-0.2,1.2-0.3,1.9-0.4,2.8c-0.6,0-1.2-0.2-1.5,0
		c-0.5,0.3-0.9,0.9-1.4,1.3c0.4,0.4,0.9,0.9,1.4,1.2c0.4,0.3,0.9,0.6,1.4,0.9c-0.2,0.3-0.3,0.5-0.5,0.8
		C2467.3,203.2,2465.7,202.2,2463.7,200.9z"/>
	<path class="st1" d="M2465.3,178.2c0.6,0.5,1.2,0.9,2,1.6c-1.1,0.9-2.3,1.9-3.4,2.8C2463.6,181.2,2462.7,179.2,2465.3,178.2
		C2465.3,178.3,2465.3,178.2,2465.3,178.2z"/>
	<path class="st1" d="M2470.4,194.3c-0.1,0.6-0.1,1.2-0.2,2.6c-1.5-2-2.6-3.3-3.8-5c0.8-0.7,2-1.8,3.2-2.8c0.2,0.1,0.3,0.2,0.4,0.3
		c-0.2,0.5-0.3,1.2-0.6,1.6c-0.4,0.6-1.1,1-1.7,1.5c0.7,0.7,1.4,1.4,2,2C2470.1,194.4,2470.3,194.4,2470.4,194.3z"/>
	<path class="st1" d="M2457.7,197c0.3,0.2,0.7,0.3,1,0.6c-0.2,1.3-0.3,2.5-0.4,3.8c-0.2,0.2-0.3,0.3-0.4,0.4
		c-0.2,0.1-0.3,0.2-0.4,0.1C2456.5,201.1,2456.7,198,2457.7,197z"/>
	<path class="st1" d="M2457,185.7c0.9,1.4,2.2,2.7,0.9,4.6c-0.3,0.2-0.6,0.3-1.5,0.9C2456.6,189,2456.8,187.3,2457,185.7z"/>
	<path class="st1" d="M2463.2,195.1c0.1,1.9,0.3,3.8,0.3,6.1C2461,198.7,2461,197.7,2463.2,195.1
		C2463.3,195.2,2463.2,195.1,2463.2,195.1z"/>
	<path class="st1" d="M2460.2,104.6c-0.9,0.3-2,0.6-2.9,0.7c-0.1,0-0.3-0.9-0.5-1.5c1-0.2,2.1-0.3,3.2-0.4
		C2460,103.9,2460.1,104.3,2460.2,104.6z"/>
	<path class="st1" d="M2463.9,207.5c0.2,0.9,0.3,1.4,0.3,1.9c0.1,0.7,0.1,1.4,0.2,2C2462.3,210.6,2462.1,209.7,2463.9,207.5z"/>
	<path class="st1" d="M2460.6,161.6c1-0.4,2-0.8,3-1.1c0.5,0.9,1,1.8,1.5,2.6C2462.2,165.7,2461.8,165.5,2460.6,161.6z"/>
</g>
<g>
	<g>
		<defs>
			<rect id="SVGID_1_" x="30.3" y="49.6" width="215.9" height="215.9"/>
		</defs>
		<clipPath id="SVGID_2_">
			<use xlink:href="#SVGID_1_"  style="overflow:visible;"/>
		</clipPath>
		<g class="st2">
			
				<image style="overflow:visible;enable-background:new    ;" width="446" height="446" xlink:href="../../../../Downloads/uptu_logo.png"  transform="matrix(0.4841 0 0 0.4841 30.3453 49.5906)">
			</image>
		</g>
	</g>
</g>
</svg>
