<?xml version="1.0" encoding="iso-8859-1"?>
<!-- Generator: Adobe Illustrator 19.0.0, SVG Export Plug-In . SVG Version: 6.00 Build 0)  -->
<svg xmlns="http://www.w3.org/2000/svg" xmlns:xlink="http://www.w3.org/1999/xlink" version="1.1" id="Capa_1" x="0px" y="0px" viewBox="0 0 370.8 370.8" style="enable-background:new 0 0 370.8 370.8;" xml:space="preserve" width="512px" height="512px">
<g>
	<g>
		<g>
			<path d="M220.4,80.124l1.2-26.4c-16.8,2.8-60.4,9.2-110.8,9.2c-50.8,0-94-6.4-110.8-9.2l1.2,26.4     c4.8,108.4,5.2,113.6,103.2,199.6c3.6,3.2,9.2,3.2,12.8,0C215.2,193.724,215.6,188.124,220.4,80.124z M128.8,129.324l0.4-1.2     c0.8-2,10.8-25.2,25.2-32.8c3.6-2,8-3.2,12.4-4c5.6-0.8,11.6-0.4,16.4,0.8c5.6,1.6,10,4.8,12.8,10c0.8,1.6,1.6,3.6,2,5.6     c7.2,45.2-64,28.8-64.4,28.8C130,135.724,128,132.524,128.8,129.324z M23.6,107.724c0.4-2,0.8-4,2-5.6c2.4-4.8,7.2-8,12.8-10     c4.8-1.6,10.8-2,16.4-0.8c4.4,0.8,8.4,2,12.4,4c15.2,8,25.2,32.8,25.6,32.8c1.2,3.2,0,6.8-3.2,8l-1.2,0.4     C86,136.924,16.8,152.524,23.6,107.724z M149.2,223.324c-10,6.8-23.6,10.8-38.8,10.8c-14.8,0-28.8-4.4-38.8-10.8     c-10.8-7.2-17.2-17.6-17.2-28.8c0-3.2,2.8-6,6-6H160c3.2,0,6,2.8,6,6C166.8,205.724,160,216.124,149.2,223.324z" fill="#357da4"/>
			<path d="M263.2,109.724c-11.2-4-22-8.4-32-12.8c-0.8,15.2-1.6,30.4-3.2,45.2c-2,15.6-4.8,30.4-10.8,44.8     c-2.4,6-5.6,11.6-9.2,17.2c6.4,0.4,12.8,2,19.2,4.4c14,5.2,25.6,13.6,32.4,23.6c7.6,10.4,10.4,22.8,6,33.6     c-1.2,3.2-4.8,4.4-7.6,3.2l-79.6-29.2c-7.2,7.2-14.8,14.4-22.4,21.6c7.2,14.4,16,30.8,26.8,50.8c2.4,4,7.2,6,11.6,4.4     c122-47.2,124-52,166-152l10.4-24.4C354,136.124,310.8,126.924,263.2,109.724z M329.6,182.124c-8.8,44.8-70,4.8-70,4.8     c-2.8-2-3.6-5.6-2-8.4l0.8-0.8c1.6-1.6,18.8-20,35.2-22c4.4-0.4,8.8-0.4,12.8,0.4c5.6,1.2,10.8,3.2,15.2,6.4     c4.8,3.6,8,8,8.4,13.6C330,178.124,330,180.124,329.6,182.124z" fill="#357da4"/>
		</g>
	</g>
</g>
<g>
</g>
<g>
</g>
<g>
</g>
<g>
</g>
<g>
</g>
<g>
</g>
<g>
</g>
<g>
</g>
<g>
</g>
<g>
</g>
<g>
</g>
<g>
</g>
<g>
</g>
<g>
</g>
<g>
</g>
</svg>
