<?xml version="1.0" encoding="iso-8859-1"?>
<!-- Generator: Adobe Illustrator 18.1.1, SVG Export Plug-In . SVG Version: 6.00 Build 0)  -->
<svg xmlns="http://www.w3.org/2000/svg" xmlns:xlink="http://www.w3.org/1999/xlink" version="1.1" id="Capa_1" x="0px" y="0px" viewBox="0 0 26 26" style="enable-background:new 0 0 26 26;" xml:space="preserve" width="512px" height="512px">
<g>
	<path d="M22.628,12.628C23.918,3.754,18.779,0,13,0C7.226,0,1.92,3.722,3.354,12.605   C2.53,13.275,2,14.444,2,15.84c0,1.871,1.793,3.477,3.181,3.987C6.482,24.155,11.222,26,13,26c1.773,0,6.492-1.835,7.809-6.135   C22.353,19.375,24,17.624,24,15.84C24,14.493,23.45,13.313,22.628,12.628z M4,15.84c0-0.479,0.101-0.883,0.251-1.194   C4.435,14.858,4.697,15,5,15c0.552,0,1-0.447,1-1v-0.961c0.058-0.998,0.241-2.056,0.639-3.033C7.858,9.737,8.915,10.088,10,6.89   c0.531,1.568,1.417,2.256,2.49,2.551c-0.332,2.1-0.917,3.698-1.61,4.9C10.607,13.562,9.872,13,9,13c-1.105,0-2,0.895-2,2   c0,0.969,0.689,1.776,1.603,1.96c-1.174,0.86-2.178,1.052-2.393,1.085c-0.067-0.019-0.133-0.043-0.201-0.049   C5.56,17.957,4,16.862,4,15.84z M14.477,9.649c1.607-0.003,3.373-0.213,4.936,0.415c0.057,0.15,0.09,0.326,0.139,0.485   c-0.386,1.067-0.82,2.039-1.293,2.908C17.915,13.176,17.48,13,17,13c-1.105,0-2,0.895-2,2c0,0.732,0.397,1.365,0.984,1.714   c-3.414,3.867-7.272,4.6-7.498,4.639c-0.063,0.011-0.114,0.044-0.172,0.066c-0.4-0.463-0.744-0.993-0.999-1.592   C9.191,19.251,13.333,17.124,14.477,9.649z M20,18c-0.473,0-0.88,0.331-0.979,0.793C18.25,22.434,14.186,24,13,24   c-0.541,0-1.682-0.331-2.836-1.032c2.245-0.733,6.793-2.873,9.899-8.655C20.196,14.71,20.558,15,21,15   c0.294,0,0.551-0.131,0.734-0.333C21.889,14.975,22,15.371,22,15.84C22,16.847,20.58,18,20,18z" fill="#357da4"/>
</g>
<g>
</g>
<g>
</g>
<g>
</g>
<g>
</g>
<g>
</g>
<g>
</g>
<g>
</g>
<g>
</g>
<g>
</g>
<g>
</g>
<g>
</g>
<g>
</g>
<g>
</g>
<g>
</g>
<g>
</g>
</svg>
