<?xml version="1.0" encoding="iso-8859-1"?>
<!-- Generator: Adobe Illustrator 19.0.0, SVG Export Plug-In . SVG Version: 6.00 Build 0)  -->
<svg xmlns="http://www.w3.org/2000/svg" xmlns:xlink="http://www.w3.org/1999/xlink" version="1.1" id="Capa_1" x="0px" y="0px" viewBox="0 0 487.426 487.426" style="enable-background:new 0 0 487.426 487.426;" xml:space="preserve" width="512px" height="512px">
<g>
	<g>
		<g>
			<path d="M418.734,466.946l-88.576-239.104H147.374L68.526,467.457c-2.547,8.092,1.948,16.716,10.04,19.263     c1.391,0.438,2.838,0.675,4.296,0.705h321.536c8.483-0.08,15.294-7.022,15.214-15.505     C419.596,470.225,419.299,468.544,418.734,466.946z" fill="#357da4"/>
			<path d="M146.35,207.362h185.856l51.2-145.408c2.269-6.298,0.198-13.341-5.12-17.408L323.502,3.074     c-2.659-1.994-5.893-3.072-9.216-3.072H289.71c-7.576-0.106-14.098,5.329-15.36,12.8c-3.085,16.683-19.11,27.707-35.793,24.623     c-12.516-2.314-22.309-12.107-24.623-24.623c-1.262-7.471-7.784-12.906-15.36-12.8h-19.456c-3.093-0.043-6.127,0.85-8.704,2.56     l-60.928,41.472c-5.474,3.72-7.95,10.529-6.144,16.896L146.35,207.362z" fill="#357da4"/>
		</g>
	</g>
</g>
<g>
</g>
<g>
</g>
<g>
</g>
<g>
</g>
<g>
</g>
<g>
</g>
<g>
</g>
<g>
</g>
<g>
</g>
<g>
</g>
<g>
</g>
<g>
</g>
<g>
</g>
<g>
</g>
<g>
</g>
</svg>
