<?xml version="1.0" encoding="utf-8"?>
<!-- Generator: Adobe Illustrator 21.0.2, SVG Export Plug-In . SVG Version: 6.00 Build 0)  -->
<svg version="1.1" id="Layer_1" opacity="0.3" xmlns="http://www.w3.org/2000/svg" xmlns:xlink="http://www.w3.org/1999/xlink"
	 x="0px" y="0px" viewBox="0 0 288 288" style="enable-background:new 0 0 288 288;" xml:space="preserve">
<style type="text/css">
	.st0{opacity:0.41;fill:#FFFFFF;}
	.st1{opacity:0.41;}
	.st2{fill:#FFC921;}
	.st3{fill:#00EAA9;}
	.st4{fill:#FF5C78;}
</style>
<rect y="0" class="st0" width="288" height="288"/>
<g class="st1">
	<polygon class="st2" points="229.9,229.5 229.2,232.1 231.6,233.3 230.8,236.2 230,236 230.6,233.7 228.2,232.6 228.9,230 
		226.5,228.8 227.1,226.3 225.1,225.3 225.5,224.5 228.2,225.8 227.5,228.4 	"/>
	<polygon class="st2" points="148.5,118.1 146.5,119.7 147.7,122 145.4,123.8 144.9,123.1 146.6,121.7 145.5,119.5 147.5,117.9 
		146.3,115.7 148.3,114.1 147.3,112.1 148.1,111.7 149.4,114.3 147.4,115.9 	"/>
	<polygon class="st2" points="84.3,48.3 87.2,52.4 91.8,50.4 95,55 93.7,56 91.2,52.4 86.6,54.5 83.7,50.4 79.1,52.4 76.2,48.3 
		72.3,50.1 71.6,48.6 76.8,46.3 79.7,50.4 	"/>
	<polygon class="st2" points="191.5,124.7 195.1,125.6 196.7,122.3 200.7,123.3 200.4,124.5 197.3,123.7 195.7,127 192.2,126.1 
		190.6,129.5 187,128.6 185.6,131.4 184.5,130.9 186.3,127.1 189.9,128 	"/>
	<polygon class="st2" points="33.4,93.7 34.2,97.6 38.2,97.6 39.1,102.1 37.8,102.4 37.1,99 33.1,99 32.3,95 28.3,95 27.5,91.1 
		24,91.1 24,89.8 28.6,89.8 29.4,93.7 	"/>
	<polygon class="st2" points="53.3,278.3 54.7,279.3 55.9,278.2 57.4,279.3 57,279.7 55.9,278.9 54.7,280 53.4,279 52.2,280.1 
		50.9,279.2 49.8,280.2 49.5,279.8 50.8,278.5 52.1,279.5 	"/>
	<polygon class="st2" points="217.3,15.8 222.3,18.3 225.7,13.9 231.4,16.7 230.6,18.4 226.3,16.2 222.8,20.6 217.8,18.1 
		214.4,22.5 209.4,20 206.4,23.8 205,22.7 208.9,17.7 213.9,20.2 	"/>
	<polygon class="st2" points="75.5,19.3 74.1,18.6 73.1,19.8 71.5,19 71.7,18.6 72.9,19.2 73.9,17.9 75.3,18.7 76.3,17.4 77.8,18.1 
		78.6,17.1 79,17.4 77.9,18.8 76.5,18.1 	"/>
	<polygon class="st2" points="94.7,143.3 97.5,144.3 99,141.7 102.3,142.8 101.9,143.7 99.5,142.9 98,145.5 95.1,144.5 93.6,147.2 
		90.8,146.2 89.5,148.5 88.6,148 90.3,145 93.2,146 	"/>
	<polygon class="st2" points="225,258.8 222.8,260.2 223.8,262.6 221.3,264.2 220.9,263.5 222.8,262.3 221.8,259.9 224,258.4 
		223,256 225.2,254.6 224.3,252.5 225.1,252.2 226.2,254.9 224,256.3 	"/>
	<polygon class="st2" points="242.1,201.9 242.2,206.6 246.9,207.4 247.1,212.8 245.5,212.8 245.4,208.7 240.7,207.9 240.6,203.2 
		235.9,202.4 235.8,197.7 231.7,197 232,195.4 237.3,196.3 237.4,201.1 	"/>
	<polygon class="st2" points="61.8,119 64.7,120.8 67.1,118.3 70.4,120.4 69.8,121.3 67.3,119.8 64.9,122.3 62,120.5 59.6,123 
		56.7,121.2 54.7,123.4 53.8,122.7 56.5,119.8 59.4,121.6 	"/>
	<polygon class="st3" points="116.5,65.6 115.6,62.1 112.1,62.3 111.1,58.4 112.3,58.1 113,61.1 116.5,60.9 117.4,64.4 120.5,64.3 
		120.5,65.4 	"/>
	<polygon class="st3" points="186.4,211.7 186.4,209.9 184.5,209.5 184.6,207.4 185.2,207.4 185.2,209 187,209.4 187,211.2 
		188.5,211.6 188.4,212.2 	"/>
	<polygon class="st3" points="52,246 47.9,245.9 47,249.9 42.3,249.8 42.4,248.4 45.9,248.5 46.8,244.5 50.9,244.6 51.7,241.1 
		53,241.4 	"/>
	<polygon class="st3" points="122,109.1 120.7,110.6 121.8,112.1 120.4,113.8 119.9,113.4 121,112.1 119.9,110.5 121.2,109.1 
		120.2,107.8 120.7,107.4 	"/>
	<polygon class="st3" points="122.5,236.5 124.4,239.2 127.4,238 129.5,241.1 128.6,241.7 127,239.3 123.9,240.5 122.1,237.8 
		119.5,238.9 119.1,237.9 	"/>
	<polygon class="st3" points="14.5,149.1 18.8,149 19.6,144.8 24.4,144.7 24.5,146.1 20.8,146.2 20,150.4 15.7,150.5 15.1,154.2 
		13.7,153.9 	"/>
	<polygon class="st3" points="78.4,243.2 82.2,246.9 86.5,243.9 90.8,248.1 89.6,249.3 86.3,246.1 82,249.1 78.2,245.4 74.4,248 
		73.5,246.5 	"/>
	<polygon class="st3" points="236.7,90.6 234.9,90.9 234.9,92.7 232.9,93.1 232.8,92.5 234.3,92.3 234.3,90.5 236.1,90.1 
		236.1,88.6 236.7,88.6 	"/>
	<polygon class="st3" points="41.5,207.9 40.5,209.2 41.6,210.4 40.5,211.9 40.1,211.6 40.9,210.4 39.9,209.2 40.8,207.9 
		39.9,206.8 40.3,206.5 	"/>
	<polygon class="st3" points="17.8,17.8 12.1,17.8 11,23.3 4.6,23.3 4.6,21.4 9.5,21.5 10.6,15.9 16.3,15.9 17.3,11.1 19.1,11.5 	
		"/>
	<polygon class="st3" points="13,234.4 12.7,231.9 10.2,231.6 9.9,228.7 10.7,228.6 10.9,230.8 13.5,231.1 13.8,233.6 16,233.8 
		15.9,234.7 	"/>
	<polygon class="st3" points="279.5,116.3 278.8,118 280.3,119.1 279.5,121 279,120.7 279.6,119.3 278,118.3 278.7,116.6 
		277.4,115.7 277.8,115.2 	"/>
	<polygon class="st4" points="96,6.9 100.9,7.1 100.9,8.5 97.1,8.4 96.3,12.1 94.9,11.7 	"/>
	<polygon class="st4" points="215.7,105.3 215.9,112.1 213.9,112.1 213.8,107 208.7,106 209.1,104.1 	"/>
	<polygon class="st4" points="185.7,29.8 183.8,27.6 184.4,27.1 185.8,28.7 187.7,27.6 188.1,28.3 	"/>
	<polygon class="st4" points="124.8,40.6 125.3,35 126.9,35.2 126.5,39.4 130.7,40.7 130.2,42.2 	"/>
	<polygon class="st4" points="198.7,270.1 200.7,265.6 202,266.2 200.5,269.6 203.6,271.8 202.8,272.9 	"/>
	<polygon class="st4" points="149,237.2 148.7,239 148.2,238.9 148.4,237.5 147.1,237 147.3,236.5 	"/>
	<polygon class="st4" points="176.7,263.9 171.8,264.5 171.6,263.1 175.4,262.6 175.7,258.8 177.1,258.9 	"/>
	<polygon class="st4" points="69.1,154.6 71.3,149.4 72.8,150 71.1,154 74.7,156.4 73.7,157.8 	"/>
	<polygon class="st4" points="182.7,102.3 184.2,105.1 183.4,105.6 182.2,103.4 179.8,104.1 179.5,103.2 	"/>
	<polygon class="st4" points="203.3,11.5 196.7,13.3 196.2,11.4 201.2,10 200.8,4.8 202.8,4.6 	"/>
	<polygon class="st4" points="153.6,24.4 152.1,22.8 152.6,22.4 153.7,23.6 155.1,22.8 155.5,23.3 	"/>
	<polygon class="st4" points="20,250.8 25.9,249.7 26.3,251.4 21.7,252.3 21.7,256.9 19.9,256.9 	"/>
	<polygon class="st4" points="254.1,269.7 250.9,268 248.5,270.8 244.8,268.9 245.4,267.8 248.2,269.3 250.6,266.5 253.8,268.2 
		256.2,265.4 259.4,267.1 261.4,264.6 262.4,265.4 259.7,268.6 256.5,266.9 	"/>
	<polygon class="st4" points="13.7,171.5 11.5,176.8 16.2,180.1 13.7,186.1 12,185.3 13.9,180.8 9.1,177.5 11.4,172.2 6.6,169 
		8.9,163.7 4.7,160.9 5.8,159.3 11.2,163 9,168.3 	"/>
	<polygon class="st4" points="117.5,178.5 118.3,177.2 117.2,176.2 118.1,174.7 118.5,174.9 117.8,176.1 119,177.1 118.1,178.4 
		119.3,179.5 118.4,180.8 119.4,181.7 119.1,182.1 117.8,180.9 118.6,179.6 	"/>
	<polygon class="st4" points="27.1,63.8 27.2,58.4 21.8,57.2 21.9,51 23.7,51 23.6,55.8 29,56.9 28.9,62.4 34.2,63.5 34.2,69 
		38.8,70 38.4,71.7 32.4,70.4 32.4,65 	"/>
	<polygon class="st4" points="119.1,209 117.4,206.8 114.9,208 113.1,205.5 113.8,204.9 115.2,206.9 117.7,205.7 119.4,207.9 
		121.9,206.7 123.5,209 125.7,208 126,208.8 123.2,210.1 121.6,207.9 	"/>
	<polygon class="st4" points="54.2,16.5 55.2,21 59.9,20.9 61.1,26.1 59.6,26.5 58.7,22.5 54,22.6 52.9,18 48.3,18.2 47.2,13.6 
		43.1,13.7 43.1,12.1 48.4,12 49.5,16.6 	"/>
	<polygon class="st4" points="145.2,265.1 146.4,259.7 141.3,257.4 142.8,251.3 144.5,251.7 143.5,256.4 148.5,258.7 147.3,264.1 
		152.3,266.4 151.1,271.8 155.5,273.8 154.7,275.4 149,272.8 150.2,267.4 	"/>
	<polygon class="st4" points="265.2,181.8 261.7,183.6 262.8,187.5 258.7,189.5 258.1,188.4 261.2,186.8 260.1,182.9 263.6,181.1 
		262.5,177.3 266.1,175.4 265.1,172.1 266.4,171.7 267.6,176.1 264.1,177.9 	"/>
	<polygon class="st4" points="58,53.7 57.1,54.9 58.2,56.1 57.1,57.5 56.7,57.2 57.5,56.1 56.4,55 57.4,53.7 56.3,52.5 57.2,51.3 
		56.3,50.3 56.7,49.9 57.9,51.2 57,52.5 	"/>
	<polygon class="st4" points="115.7,141.7 116.1,135.8 110.4,134.2 110.9,127.5 112.8,127.7 112.5,132.8 118.1,134.3 117.7,140.2 
		123.4,141.8 123,147.7 127.9,149 127.4,150.9 120.9,149.1 121.4,143.2 	"/>
	<polygon class="st4" points="101,32.8 103.1,31.8 102.6,29.5 105,28.4 105.3,29.1 103.5,30 104,32.3 101.9,33.3 102.4,35.5 
		100.3,36.5 100.8,38.5 100,38.7 99.4,36.1 101.5,35.1 	"/>
	<polygon class="st4" points="123,16.6 121,12 116.1,13 113.9,7.7 115.4,7.1 117.1,11.1 122,10.1 124,14.7 128.9,13.7 130.9,18.4 
		135.1,17.5 135.5,19.2 129.9,20.3 127.9,15.6 	"/>
	<polygon class="st2" points="174.4,6.9 173.5,8.9 175.2,10.2 174.1,12.4 173.5,12 174.3,10.4 172.6,9.1 173.5,7.1 172.1,6 
		172.5,5.5 	"/>
	<polygon class="st2" points="64.1,267.3 69,268.5 71.1,263.8 76.7,265.1 76.4,266.7 72.1,265.8 70,270.4 65.1,269.3 63.3,273.3 
		61.8,272.6 	"/>
	<polygon class="st2" points="102.8,271.9 103.9,270.2 102.5,268.8 103.7,266.9 104.3,267.3 103.3,268.7 104.7,270.1 103.6,271.8 
		104.9,273 104.4,273.5 	"/>
	<polygon class="st2" points="165.4,223.9 166,222.4 164.6,221.5 165.3,219.8 165.8,220 165.3,221.3 166.6,222.1 166,223.6 
		167.2,224.4 166.9,224.9 	"/>
	<polygon class="st2" points="272.7,203.4 272.6,208.2 277.3,209.3 277.2,214.8 275.6,214.7 275.7,210.5 271,209.5 271.1,204.6 
		267,203.7 267.4,202.2 	"/>
	<polygon class="st2" points="13,204.7 13.7,202.4 11.5,201.2 12.3,198.6 13.1,198.8 12.5,200.8 14.6,202 13.9,204.3 15.8,205.2 
		15.4,205.9 	"/>
	<polygon class="st2" points="241.8,164.8 238.5,160 233.2,162.3 229.4,156.8 231,155.7 233.9,159.9 239.3,157.6 242.5,162.5 
		247.2,160.5 247.9,162.3 	"/>
	<polygon class="st2" points="284.3,47.7 279,49.6 279.8,55.2 273.7,57.4 273.1,55.6 277.7,54 276.9,48.3 282.2,46.4 281.5,41.6 
		283.4,41.3 	"/>
	<polygon class="st2" points="131.7,86.9 134.1,85.9 133.6,83.3 136.3,82.1 136.7,82.9 134.6,83.8 135.1,86.4 132.7,87.5 
		133.2,89.7 132.3,89.9 	"/>
	<polygon class="st2" points="92.9,173.6 92.4,172 90.7,172.1 90.2,170.3 90.8,170.1 91.2,171.5 92.8,171.4 93.3,173 94.7,172.9 
		94.8,173.5 	"/>
	<polygon class="st2" points="59.8,183 63,185.3 65.8,182.6 69.5,185.1 68.8,186.2 66,184.2 63.1,187 59.9,184.7 57.4,187.1 
		56.5,186.1 	"/>
	<polygon class="st2" points="188.8,52.5 187.9,50.9 186.2,51.6 185.1,49.8 185.6,49.5 186.5,50.8 188.1,50.2 189.1,51.7 
		190.6,51.2 190.8,51.8 	"/>
	<polygon class="st3" points="89.7,196.8 89,198.5 88.4,198.3 89,197 87.8,196.2 88.1,195.7 	"/>
	<polygon class="st3" points="198.6,82.3 200.3,81.6 200.5,82.1 199.2,82.6 199.5,84 199,84.1 	"/>
	<polygon class="st3" points="272.8,79.3 278.1,79.7 278,81.2 273.9,80.9 272.8,84.9 271.3,84.5 	"/>
	<polygon class="st3" points="68.3,86.9 69.4,88.2 69.1,88.6 68.2,87.6 67.1,88.2 66.8,87.8 	"/>
	<polygon class="st3" points="238.5,69.8 232.4,68.9 232.6,67.1 237.3,67.8 238.9,63.4 240.6,64 	"/>
	<polygon class="st3" points="243.9,122.6 239.3,121.3 239.7,120 243.2,121 244.9,117.8 246.1,118.5 	"/>
	<polygon class="st3" points="144.8,141.7 146.7,142.3 146.5,142.9 145.1,142.4 144.3,143.8 143.8,143.5 	"/>
	<polygon class="st3" points="255.7,234 257.7,233.2 257.9,233.7 256.4,234.4 256.8,236 256.2,236.1 	"/>
	<polygon class="st3" points="279.3,16.3 278.3,17.8 277.9,17.6 278.6,16.3 277.6,15.4 277.9,15 	"/>
	<polygon class="st3" points="226.7,279.5 229.7,277.9 230.1,278.7 227.9,280 228.7,282.5 227.7,282.8 	"/>
	<polygon class="st3" points="66.8,218.2 68,220 67.5,220.3 66.6,219 65,219.6 64.8,219 	"/>
	<polygon class="st3" points="170,67.7 166.7,69.1 166.3,68.1 168.8,67.1 168.3,64.5 169.3,64.3 	"/>
	<polygon class="st3" points="168.3,168.9 166.2,173.4 170.2,176.3 167.8,181.4 166.4,180.7 168.2,176.8 164.2,173.9 166.3,169.4 
		162.3,166.4 164.4,161.9 161,159.4 161.9,158.1 166.5,161.4 164.4,165.9 	"/>
	<polygon class="st3" points="8.1,82.6 8.3,80.9 6.7,80.5 6.8,78.7 7.4,78.7 7.3,80.1 8.8,80.6 8.7,82.2 10.3,82.6 10.2,84.3 
		11.5,84.6 11.4,85.2 9.6,84.7 9.7,83 	"/>
	<polygon class="st3" points="261.1,103.8 260.1,102.6 258.7,103.5 257.5,102.2 257.9,101.8 258.8,102.8 260.1,102 261.2,103.1 
		262.6,102.3 263.7,103.4 264.8,102.7 265.1,103.2 263.6,104.1 262.5,103 	"/>
	<polygon class="st3" points="261.8,62.6 257.9,65.4 260,69.8 255.6,73.1 254.6,71.8 258,69.3 255.9,64.9 259.8,62.1 257.8,57.7 
		261.7,54.8 259.9,51 261.4,50.3 263.7,55.3 259.8,58.2 	"/>
	<polygon class="st3" points="259.5,140.7 260.9,144.7 265.1,144.2 266.6,148.7 265.3,149.2 264.1,145.7 259.9,146.2 258.6,142.2 
		254.4,142.8 253,138.8 249.4,139.2 249.2,137.8 254,137.2 255.3,141.2 	"/>
	<polygon class="st3" points="96,77.6 101.9,77.2 102.7,71.3 109.4,70.9 109.6,72.8 104.5,73.2 103.7,79 97.8,79.4 97,85.3 
		91.1,85.7 90.4,90.8 88.4,90.5 89.3,83.8 95.2,83.5 	"/>
	<polygon class="st3" points="222.3,141.4 220.1,141.7 219.9,144 217.3,144.4 217.2,143.6 219.2,143.4 219.3,141.1 221.6,140.7 
		221.8,138.4 224.1,138.1 224.2,136.1 225,136.2 224.8,138.8 222.5,139.1 	"/>
	<polygon class="st3" points="212.9,200.4 211.1,199.3 209.7,200.9 207.6,199.7 207.9,199.1 209.5,200 211,198.4 212.8,199.5 
		214.2,197.9 216.1,199 217.3,197.6 217.8,198.1 216.2,199.9 214.4,198.8 	"/>
	<polygon class="st3" points="173.1,141.6 168.1,143.4 168.9,148.7 163.2,150.8 162.6,149.2 166.9,147.6 166.1,142.3 171.2,140.4 
		170.4,135.1 175.4,133.2 174.7,128.6 176.5,128.4 177.4,134.4 172.3,136.3 	"/>
	<polygon class="st3" points="224.6,176.4 226.4,178 228.3,176.5 230.3,178.2 229.8,178.8 228.3,177.5 226.4,179 224.6,177.4 
		222.8,178.9 221,177.3 219.4,178.6 218.9,178 221,176.3 222.8,177.9 	"/>
	<polygon class="st3" points="30.9,129.5 35,128.2 34.5,123.9 39.1,122.4 39.5,123.8 36,124.9 36.5,129.2 32.4,130.5 32.9,134.7 
		28.9,136 29.3,139.7 27.9,139.9 27.3,135.1 31.4,133.7 	"/>
	<polygon class="st3" points="33.3,182.2 34.9,182.7 35.7,181.1 37.6,181.6 37.4,182.1 36,181.8 35.3,183.3 33.6,182.9 32.9,184.5 
		31.2,184 30.6,185.4 30.1,185.1 30.9,183.4 32.5,183.8 	"/>
	<polygon class="st4" points="207.9,63.7 210.2,62.7 209.7,60.3 212.3,59.2 212.7,59.9 210.6,60.8 211.1,63.2 208.8,64.2 
		209.2,66.3 208.4,66.5 	"/>
	<polygon class="st4" points="14.7,45.6 10.3,45.6 9.4,49.9 4.3,49.9 4.3,48.4 8.2,48.4 9.1,44.1 13.5,44.1 14.3,40.3 15.8,40.6 	
		"/>
	<polygon class="st4" points="205,234 205.4,229.5 201.1,228.2 201.6,223.1 203,223.2 202.7,227.1 207,228.4 206.6,232.9 210.4,234 
		209.9,235.4 	"/>
	<polygon class="st4" points="49.1,163.3 50.1,161.9 48.9,160.6 50,159 50.4,159.4 49.6,160.6 50.8,161.8 49.8,163.3 50.9,164.3 
		50.5,164.7 	"/>
	<polygon class="st4" points="32.6,33.5 31.8,35 33.2,36.1 32.3,37.8 31.8,37.6 32.5,36.2 31.1,35.2 31.9,33.6 30.7,32.7 31,32.2 	
		"/>
	<polygon class="st4" points="34.9,8.1 31.8,9.3 32.4,12.6 28.9,14 28.5,12.9 31.2,11.9 30.6,8.6 33.7,7.4 33.2,4.6 34.2,4.4 	"/>
	<polygon class="st4" points="96.1,111.2 94.6,111.6 94.7,113.2 93,113.7 92.9,113.2 94.2,112.8 94,111.2 95.5,110.8 95.4,109.4 
		95.9,109.4 	"/>
	<polygon class="st4" points="141.4,167.4 139.6,167.7 139.6,169.5 137.5,169.8 137.4,169.2 139,169 139.1,167.1 140.8,166.9 
		140.9,165.3 141.5,165.3 	"/>
	<polygon class="st4" points="5.9,275.2 8,274.2 7.4,271.9 9.8,270.8 10.1,271.5 8.3,272.3 8.9,274.6 6.8,275.6 7.3,277.5 
		6.5,277.7 	"/>
	<polygon class="st4" points="144.2,60.7 146.6,55.4 141.9,52 144.7,46 146.4,46.8 144.3,51.3 149,54.8 146.6,60.1 150.7,63.1 
		149.5,64.6 	"/>
	<polygon class="st4" points="161.5,97.8 160.3,94.3 156.6,94.8 155.3,90.9 156.4,90.5 157.5,93.5 161.1,93 162.3,96.5 165.5,96.1 
		165.7,97.3 	"/>
	<polygon class="st4" points="186.3,240.3 184.9,241.5 185.8,243.1 184.2,244.5 183.8,244 185,243 184.1,241.3 185.5,240.1 
		184.7,238.7 185.2,238.4 	"/>
	<polygon class="st2" points="149.2,201.9 146.9,199 147.7,198.3 149.5,200.5 152,199.1 152.5,200.1 	"/>
	<polygon class="st2" points="29.1,273.8 34.1,277.4 33.1,278.9 29.3,276.1 25.8,279.3 24.5,278 	"/>
	<polygon class="st2" points="101.2,227.9 99.6,230.5 98.9,230.1 100.1,228.1 98.4,226.5 99,225.8 	"/>
	<polygon class="st2" points="229.3,38.9 231.1,45.1 229.3,45.6 227.9,40.9 223,41.3 222.9,39.5 	"/>
	<polygon class="st2" points="187.7,184.2 189.7,182 190.3,182.5 188.8,184.3 190.2,186.1 189.5,186.6 	"/>
	<polygon class="st2" points="133.8,279.7 132.8,277.2 133.5,276.9 134.3,278.8 136.2,278.5 136.4,279.2 	"/>
	<polygon class="st2" points="174.9,279.1 178.3,278.8 178.3,279.8 175.7,280 175.4,282.6 174.4,282.5 	"/>
	<polygon class="st2" points="251,10.7 250.8,16.4 249.2,16.3 249.3,12 245.1,11 245.5,9.4 	"/>
	<polygon class="st2" points="275.8,260 278.7,257.1 279.5,257.9 277.4,260.1 279.1,262.7 278.1,263.4 	"/>
	<polygon class="st2" points="263.1,32 260.5,37.8 258.8,37 260.8,32.6 256.8,29.8 257.9,28.3 	"/>
	<polygon class="st2" points="193.7,154.3 197.7,150.9 198.7,152 195.7,154.6 197.6,158.1 196.3,158.8 	"/>
	<polygon class="st2" points="276.4,155.7 277.8,153.5 278.4,153.9 277.3,155.6 278.8,156.9 278.2,157.5 	"/>
</g>
</svg>
