<svg height="512" viewBox="0 0 64 64" width="512" xmlns="http://www.w3.org/2000/svg"><path d="m47 3h10v10h-10z" fill="#cdeef6"/><path d="m57 3a4 4 0 0 0 -4 4v49h8v-49a4 4 0 0 0 -4-4z" fill="#418abd"/><path d="m17 3a4 4 0 0 0 -4 4v54h40v-55c0-2.209 1.791-3 4-3z" fill="#cdeef6"/><path d="m12.172.858h5.657v28.284h-5.657z" fill="#cd4b4c" transform="matrix(.707 -.707 .707 .707 -6.213 15)"/><path d="m27 23-4 4s2 4 10 4c0 0 0-7-6-8z" fill="#418abd"/><path d="m20 31v8a2 2 0 0 0 4 0 2 2 0 0 1 4 0v6a2 2 0 0 0 4 0v-8a2 2 0 0 1 4 0v14a2 2 0 0 0 4 0v-20z" fill="#eb8cb3"/><g fill="#eb9198"><path d="m33 12v5a2 2 0 0 0 4 0 2 2 0 0 1 4 0v4a2 2 0 0 0 4 0v-12z"/><circle cx="25" cy="11" r="2"/><circle cx="21" cy="50" r="3"/><circle cx="46" cy="29" r="2"/></g><path d="m56 16h2v40h-2z" fill="#cdeef6"/><path d="m37 24h2v2h-2z" fill="#b7dcd0"/><path d="m16 43h2v2h-2z" fill="#b7dcd0"/></svg>