<svg id="Layer_1" enable-background="new 0 0 256 256" viewBox="0 0 256 256" xmlns="http://www.w3.org/2000/svg"><g><g><g><path d="m199.618 72.844.007-.041-.003.004c1.667-21.982-26.426-24.745-36.353-25.036l-1.725-.049c-.775-.022-1.41.613-1.388 1.388l.049 1.724c.291 9.927 3.054 38.02 25.036 36.353l-.004.003.041-.007 12.362-1.979z" fill="#6bdddd"/></g><g><path d="m201.592 73.16-1.979 12.362c-.137.853-.806 1.521-1.659 1.658l-12.362 1.979c-.067.011-.135.019-.202.022-.675.052-1.341.078-1.995.078-5.38 0-10.025-1.729-13.83-5.154-9.628-8.667-11.151-26.112-11.359-33.211l-.049-1.727c-.026-.917.331-1.815.98-2.465.648-.649 1.526-1.001 2.465-.979l1.722.048c7.101.208 24.546 1.731 33.213 11.359 3.817 4.241 5.529 9.524 5.087 15.706-.002.098-.011.196-.027.295zm-39.418-23.419.029 1.037c.193 6.582 1.558 22.72 10.038 30.353 3.462 3.117 7.65 4.452 12.805 4.065l10.847-1.736 1.738-10.856c.379-5.149-.951-9.336-4.066-12.796-7.634-8.48-23.771-9.845-30.355-10.038zm35.465 35.465h.01z" fill="#3762cc"/></g><g><path d="m204.614 126.001c-1.104 0-2-.896-2-2v-21.946c0-5.834-2.271-11.317-6.396-15.441l-31.207-31.207c-.781-.781-.781-2.047 0-2.828.78-.781 2.047-.781 2.828 0l31.207 31.207c4.88 4.879 7.568 11.367 7.568 18.27v21.946c0 1.103-.896 1.999-2 1.999z" fill="#3762cc"/></g><g><path d="m182.894 72.433c-1.104 0-2-.896-2-2v-11.959c0-1.104.896-2 2-2s2 .896 2 2v11.959c0 1.104-.895 2-2 2z" fill="#3762cc"/></g><g><path d="m190.574 80.142h-15.361c-1.104 0-2-.896-2-2s.896-2 2-2h15.361c1.104 0 2 .896 2 2s-.895 2-2 2z" fill="#3762cc"/></g><g><path d="m175.516 65.004h-8.687c-1.104 0-2-.896-2-2s.896-2 2-2h8.687c1.104 0 2 .896 2 2s-.896 2-2 2z" fill="#3762cc"/></g><g><path d="m209.61 72.844-.007-.041.003.004c-1.667-21.982 26.426-24.745 36.353-25.036l1.725-.049c.775-.022 1.41.613 1.388 1.388l-.049 1.724c-.291 9.927-3.054 38.02-25.036 36.353l.004.003-.041-.007-12.362-1.979z" fill="#6bdddd"/></g><g><path d="m225.833 89.259c-.613 0-1.235-.022-1.867-.067-.101-.001-.202-.011-.303-.027l-12.39-1.983c-.854-.137-1.522-.806-1.659-1.658l-1.983-12.391c-.017-.1-.025-.198-.027-.296-.441-6.182 1.27-11.465 5.087-15.705 8.667-9.628 26.112-11.151 33.21-11.359l1.728-.048c.918-.025 1.813.33 2.462.979s1.007 1.548.98 2.465l-.049 1.725c-.208 7.101-1.731 24.546-11.359 33.213-3.805 3.422-8.45 5.152-13.83 5.152zm-1.647-4.063c5.152.39 9.339-.948 12.801-4.065 8.48-7.633 9.844-23.771 10.038-30.354l.029-1.035-1.039.028c-6.581.193-22.718 1.558-30.352 10.038-3.115 3.46-4.446 7.646-4.066 12.796l1.738 10.856z" fill="#3762cc"/></g><g><path d="m204.614 126.001c-1.104 0-2-.896-2-2v-21.946c0-6.902 2.688-13.391 7.568-18.27l31.207-31.207c.781-.781 2.048-.781 2.828 0 .781.781.781 2.047 0 2.828l-31.207 31.207c-4.125 4.124-6.396 9.607-6.396 15.441v21.946c0 1.105-.896 2.001-2 2.001z" fill="#3762cc"/></g><g><path d="m226.333 72.433c-1.104 0-2-.896-2-2v-11.959c0-1.104.896-2 2-2s2 .896 2 2v11.959c0 1.104-.895 2-2 2z" fill="#3762cc"/></g><g><path d="m234.014 80.142h-15.361c-1.104 0-2-.896-2-2s.896-2 2-2h15.361c1.104 0 2 .896 2 2s-.895 2-2 2z" fill="#3762cc"/></g><g><path d="m242.398 65.004h-8.687c-1.104 0-2-.896-2-2s.896-2 2-2h8.687c1.104 0 2 .896 2 2s-.895 2-2 2z" fill="#3762cc"/></g><g><path d="m108.376 25.432c4.578-.042 8.282 3.731 8.282 8.309 0 4.511-3.6 8.259-8.111 8.304-48.171.472-87.505 41.163-84.867 90.625 3.923 73.625 92.288 107.579 144.921 57.675 16.563-15.706 25.987-36.648 26.781-59.251h-8.042c-2.402 0-3.784-2.73-2.363-4.666l17.011-23.178c1.171-1.596 3.555-1.596 4.727 0l17.011 23.178c1.421 1.936.038 4.666-2.363 4.666h-9.352c-.795 26.93-11.864 51.973-31.43 70.8-63.777 61.338-170.176 17.855-173.576-69.856-2.252-58.32 44.241-106.08 101.371-106.606z" fill="#6bdddd"/></g><g><path d="m110.21 232.563c-13.243 0-26.668-2.555-39.651-7.786-38.825-15.646-63.944-51.152-65.553-92.663-1.102-28.537 9.125-55.617 28.797-76.253 19.687-20.651 46.164-32.168 74.555-32.428 2.687-.009 5.287 1.022 7.233 2.95 1.978 1.96 3.067 4.573 3.067 7.358 0 5.627-4.527 10.249-10.091 10.304-22.672.222-44.639 9.896-60.268 26.543-15.82 16.852-23.854 38.861-22.622 61.976 1.757 32.964 21.88 61.028 52.516 73.243 30.917 12.327 65.03 5.844 89.032-16.913 15.588-14.781 24.793-34.528 26.061-55.799h-5.945c-1.869 0-3.555-1.036-4.399-2.703-.845-1.668-.683-3.64.423-5.147l17.011-23.178c.939-1.279 2.388-2.014 3.976-2.014s3.037.734 3.976 2.015l17.011 23.177c1.106 1.507 1.269 3.479.424 5.146-.844 1.667-2.53 2.703-4.399 2.703h-7.428c-1.277 26.71-12.583 51.589-31.967 70.241-19.936 19.172-45.487 29.228-71.759 29.228zm-1.815-205.13c-27.3.251-52.762 11.327-71.696 31.188-18.92 19.846-28.755 45.892-27.695 73.339 1.547 39.914 25.707 74.058 63.051 89.106 37.255 15.016 78.309 7.114 107.14-20.614 19.093-18.373 30.038-43.025 30.816-69.417.032-1.081.917-1.941 1.999-1.941h9.353c.517 0 .753-.357.831-.511.078-.153.226-.556-.08-.972l-17.011-23.178c-.243-.332-.575-.381-.751-.381s-.508.049-.75.38l-17.012 23.179c-.306.417-.158.819-.08.973.078.153.314.511.831.511h8.042c.542 0 1.062.221 1.439.611s.579.917.56 1.459c-.812 23.112-10.544 44.645-27.404 60.631-25.147 23.844-60.885 30.636-93.265 17.727-32.103-12.799-53.189-42.206-55.029-76.746-1.291-24.214 7.125-47.272 23.7-64.926 16.372-17.438 39.387-27.573 63.145-27.806 3.38-.033 6.13-2.86 6.13-6.304 0-1.71-.668-3.314-1.882-4.517-1.183-1.17-2.766-1.829-4.382-1.791z" fill="#3762cc"/></g></g><g><circle cx="107.29" cy="128.204" fill="#e0ebfc" r="67.177"/></g><g><path d="m107.185 197.377c-9.777 0-19.701-2.08-29.13-6.478-16.747-7.809-29.45-21.672-35.77-39.035-6.32-17.364-5.5-36.149 2.31-52.896 7.809-16.746 21.672-29.449 39.036-35.769 17.363-6.321 36.149-5.499 52.896 2.31 34.57 16.12 49.581 57.36 33.46 91.932-11.724 25.14-36.735 39.936-62.802 39.936zm.144-134.385c-7.518 0-15.055 1.317-22.33 3.965-16.36 5.955-29.421 17.924-36.779 33.702s-8.13 33.478-2.176 49.837 17.923 29.421 33.701 36.778c32.572 15.187 71.428 1.047 86.616-31.525 15.188-32.571 1.046-71.427-31.525-86.615-8.762-4.086-18.119-6.142-27.507-6.142z" fill="#3762cc"/></g><g><path d="m135.681 67.321c-33.625-15.68-73.594-1.132-89.274 32.493-.009.019-.016.038-.025.057l13.754 3.049c4.832 1.071 4.48 5.925 4.583 7.799.18 3.255-2.411 5.992-5.671 5.992h-4.244c-1.737 0-1.289-.151-14.555 7.237-.802 12.689 2.03 25.272 7.99 36.283l10.02 2.046c2.188.447 3.912 2.135 4.404 4.314l3.287 14.559c3.927 3.061 8.243 5.745 12.948 7.939 5.381 2.509 10.924 4.235 16.504 5.242l2.213-16.438c.28-2.083.147-1.468 13.378-18.189 1.944-2.457 1.291-3.436-.733-18.215-.361-2.634-2.501-4.665-5.15-4.889l-15.983-1.347c-2.521-.212-2.931-1.073-10.846-8.423-2.374-2.204-2.426-5.944-.115-8.214 0 0 3.176-3.015 24.457-24.296 1.523-1.523.469-.956 26.839-7.494 1.821-.452 3.302-1.774 3.956-3.533l5.365-14.427c-1.014-.538-2.049-1.054-3.102-1.545z" fill="#6bdddd"/></g><g><path d="m142.691 109.121-4.834 14.75c-.42 1.283-.37 2.673.142 3.922 6.435 15.701 6.251 16.592 9.053 17.793l21.84 9.36c10.084-23.202 6.035-49.139-8.558-67.955-18.359 22.364-17.214 20.822-17.643 22.13z" fill="#6bdddd"/></g><g><path d="m95.404 196.329c-.118 0-.237-.011-.355-.032-5.868-1.059-11.585-2.874-16.995-5.397-4.7-2.191-9.186-4.941-13.332-8.174-.365-.284-.62-.686-.721-1.137l-3.288-14.559c-.318-1.408-1.438-2.505-2.853-2.794l-10.02-2.046c-.58-.119-1.077-.487-1.359-1.008-6.203-11.459-9.048-24.379-8.228-37.361.043-.68.428-1.29 1.023-1.621l3.35-1.867c10.09-5.627 10.101-5.628 12.08-5.623h4.343c1.021 0 1.97-.408 2.672-1.15.702-.741 1.058-1.712 1.001-2.731-.01-.189-.017-.407-.023-.646-.086-3.032-.589-4.776-2.996-5.311l-13.754-3.049c-.594-.131-1.096-.526-1.364-1.073-.268-.546-.271-1.186-.011-1.735 7.829-16.792 21.692-29.495 39.056-35.814 17.363-6.321 36.149-5.499 52.896 2.31 1.083.505 2.158 1.04 3.195 1.589.887.47 1.288 1.524.938 2.465l-5.366 14.428c-.885 2.38-2.885 4.166-5.35 4.776-5.588 1.386-9.945 2.452-13.356 3.287-11.313 2.769-11.777 2.902-12.438 3.567l-.112.112c-21.057 21.058-24.363 24.209-24.494 24.332-.7.688-1.091 1.639-1.077 2.653s.432 1.954 1.175 2.645c1.429 1.327 2.614 2.443 3.611 3.382 4.562 4.296 4.767 4.406 6.042 4.514l15.983 1.347c3.608.304 6.472 3.021 6.963 6.61.368 2.683.689 4.909.959 6.772 1.259 8.701 1.485 10.27-.638 12.954-2.723 3.441-4.879 6.147-6.591 8.296-6.225 7.813-6.23 7.853-6.371 8.891l-2.217 16.467c-.073.541-.363 1.029-.805 1.351-.341.247-.753.38-1.173.38zm-27.66-16.324c3.75 2.859 7.785 5.304 12.001 7.27 4.464 2.082 9.15 3.653 13.96 4.682l1.93-14.332c.296-2.202.296-2.202 7.21-10.879 1.709-2.145 3.863-4.849 6.582-8.284.981-1.24 1.027-1.533-.184-9.9-.271-1.871-.594-4.107-.963-6.802-.235-1.72-1.607-3.021-3.336-3.167l-15.984-1.347c-2.763-.233-3.742-1.156-8.448-5.588-.992-.934-2.17-2.043-3.591-3.362-1.552-1.441-2.423-3.402-2.453-5.521-.029-2.118.787-4.102 2.298-5.586.056-.054 3.493-3.332 24.444-24.283l.101-.102c1.479-1.491 1.479-1.491 14.326-4.636 3.408-.834 7.762-1.899 13.345-3.284 1.181-.292 2.139-1.147 2.563-2.288l4.746-12.762c-.481-.238-.967-.473-1.455-.7-15.778-7.358-33.478-8.131-49.837-2.177-15.593 5.676-28.19 16.815-35.708 31.51l11.278 2.5c5.906 1.309 6.067 6.97 6.128 9.102.006.199.011.381.02.539.117 2.129-.625 4.153-2.09 5.701-1.465 1.549-3.446 2.401-5.578 2.401h-4.35c-.873-.009-.944-.004-10.125 5.116l-2.388 1.331c-.539 11.56 2.002 23.03 7.376 33.302l9.098 1.857c2.954.604 5.291 2.894 5.955 5.833z" fill="#3762cc"/></g><g><path d="m168.891 156.947c-.263 0-.53-.053-.787-.163l-21.84-9.359c-3.032-1.299-3.497-2.455-7.113-11.457-.808-2.01-1.787-4.447-3.003-7.415-.691-1.688-.759-3.571-.191-5.305l4.878-14.892c.366-1.232.366-1.232 10.584-13.664l7.369-8.969c.386-.472.972-.741 1.574-.731.608.009 1.18.294 1.553.774 15.506 19.992 18.883 46.806 8.812 69.977-.329.754-1.064 1.203-1.836 1.204zm-8.634-66.712-5.749 6.997c-7.162 8.713-9.574 11.647-9.809 12.16l-.108.352-4.834 14.75c-.272.83-.239 1.733.092 2.542 1.221 2.978 2.203 5.424 3.014 7.44 3.465 8.624 3.579 8.673 4.977 9.272l19.983 8.563c8.226-20.622 5.365-44.016-7.566-62.076zm-17.566 18.886h.01z" fill="#3762cc"/></g><g><path d="m107.185 197.377c-9.777 0-19.701-2.08-29.13-6.478-16.747-7.809-29.45-21.672-35.77-39.035-6.32-17.364-5.5-36.149 2.31-52.896 7.809-16.746 21.672-29.449 39.036-35.769 17.363-6.321 36.149-5.499 52.896 2.31 34.57 16.12 49.581 57.36 33.46 91.932-11.724 25.14-36.735 39.936-62.802 39.936zm.144-134.385c-7.518 0-15.055 1.317-22.33 3.965-16.36 5.955-29.421 17.924-36.779 33.702s-8.13 33.478-2.176 49.837 17.923 29.421 33.701 36.778c32.572 15.187 71.428 1.047 86.616-31.525 15.188-32.571 1.046-71.427-31.525-86.615-8.762-4.086-18.119-6.142-27.507-6.142z" fill="#3762cc"/></g></g></svg>